<svg width="127" height="20" viewBox="0 0 127 20" fill="none" xmlns="http://www.w3.org/2000/svg">
<path d="M21.0842 18.62H16.1282L14.9242 15.12H6.91618L5.71218 18.62H0.78418L7.14018 0H14.7282L21.0842 18.62ZM10.9202 3.416L8.17618 11.396H13.6642L10.9202 3.416Z" fill="url(#paint0_linear_2218_29537)"/>
<path d="M40.0936 15.26C40.0936 15.932 40.1216 16.4827 40.1776 16.912C40.2336 17.3227 40.3269 17.892 40.4576 18.62H35.4736C35.2496 17.8547 35.1376 16.7347 35.1376 15.26V14.504C35.1376 13.6453 34.8856 12.992 34.3816 12.544C33.8962 12.096 33.2336 11.872 32.3936 11.872H29.0056V18.62H24.0216V0H34.3256C36.3602 0 37.9096 0.476 38.9736 1.428C40.0376 2.36133 40.5696 3.60267 40.5696 5.152C40.5696 6.44 40.1962 7.52267 39.4496 8.4C38.7029 9.27733 37.7322 9.83733 36.5376 10.08C37.6389 10.3227 38.5069 10.7613 39.1416 11.396C39.7762 12.012 40.0936 12.9547 40.0936 14.224V15.26ZM33.0096 8.344C33.8496 8.344 34.4562 8.148 34.8296 7.756C35.2216 7.364 35.4176 6.76667 35.4176 5.964C35.4176 5.236 35.2216 4.69467 34.8296 4.34C34.4562 3.96667 33.8589 3.78 33.0376 3.78H29.0056V8.344H33.0096Z" fill="url(#paint1_linear_2218_29537)"/>
<path d="M60.7709 15.26C60.7709 15.932 60.7989 16.4827 60.8549 16.912C60.9109 17.3227 61.0042 17.892 61.1349 18.62H56.1509C55.9269 17.8547 55.8149 16.7347 55.8149 15.26V14.504C55.8149 13.6453 55.5629 12.992 55.0589 12.544C54.5736 12.096 53.9109 11.872 53.0709 11.872H49.6829V18.62H44.6989V0H55.0029C57.0376 0 58.5869 0.476 59.6509 1.428C60.7149 2.36133 61.2469 3.60267 61.2469 5.152C61.2469 6.44 60.8736 7.52267 60.1269 8.4C59.3802 9.27733 58.4096 9.83733 57.2149 10.08C58.3162 10.3227 59.1842 10.7613 59.8189 11.396C60.4536 12.012 60.7709 12.9547 60.7709 14.224V15.26ZM53.6869 8.344C54.5269 8.344 55.1336 8.148 55.5069 7.756C55.8989 7.364 56.0949 6.76667 56.0949 5.964C56.0949 5.236 55.8989 4.69467 55.5069 4.34C55.1336 3.96667 54.5362 3.78 53.7149 3.78H49.6829V8.344H53.6869Z" fill="url(#paint2_linear_2218_29537)"/>
<path d="M76.5828 0V3.892H73.3068V14.728H76.5828V18.62H65.1028V14.728H68.3788V3.892H65.1028V0H76.5828Z" fill="url(#paint3_linear_2218_29537)"/>
<path d="M80.2267 0H85.1827V10.892C85.1827 12.46 85.4721 13.5427 86.0507 14.14C86.6294 14.7373 87.5721 15.036 88.8787 15.036C90.2041 15.036 91.1561 14.7373 91.7347 14.14C92.3321 13.5427 92.6307 12.46 92.6307 10.892V0H97.5587V11.536C97.5587 14.0187 96.8307 15.8947 95.3747 17.164C93.9187 18.4333 91.7534 19.068 88.8787 19.068C86.0227 19.068 83.8667 18.4333 82.4107 17.164C80.9547 15.8947 80.2267 14.0187 80.2267 11.536V0Z" fill="url(#paint4_linear_2218_29537)"/>
<path d="M126.087 0V18.62H121.159V3.192L116.679 18.62H111.163L106.655 3.08V18.62H101.727V0H110.211L113.991 13.524L117.799 0H126.087Z" fill="url(#paint5_linear_2218_29537)"/>
<defs>
<linearGradient id="paint0_linear_2218_29537" x1="64" y1="-8.37988" x2="64" y2="30.6201" gradientUnits="userSpaceOnUse">
<stop stop-color="#2453B3"/>
<stop offset="1" stop-color="#3071F2"/>
</linearGradient>
<linearGradient id="paint1_linear_2218_29537" x1="64" y1="-8.37988" x2="64" y2="30.6201" gradientUnits="userSpaceOnUse">
<stop stop-color="#2453B3"/>
<stop offset="1" stop-color="#3071F2"/>
</linearGradient>
<linearGradient id="paint2_linear_2218_29537" x1="64" y1="-8.37988" x2="64" y2="30.6201" gradientUnits="userSpaceOnUse">
<stop stop-color="#2453B3"/>
<stop offset="1" stop-color="#3071F2"/>
</linearGradient>
<linearGradient id="paint3_linear_2218_29537" x1="64" y1="-8.37988" x2="64" y2="30.6201" gradientUnits="userSpaceOnUse">
<stop stop-color="#2453B3"/>
<stop offset="1" stop-color="#3071F2"/>
</linearGradient>
<linearGradient id="paint4_linear_2218_29537" x1="64" y1="-8.37988" x2="64" y2="30.6201" gradientUnits="userSpaceOnUse">
<stop stop-color="#2453B3"/>
<stop offset="1" stop-color="#3071F2"/>
</linearGradient>
<linearGradient id="paint5_linear_2218_29537" x1="64" y1="-8.37988" x2="64" y2="30.6201" gradientUnits="userSpaceOnUse">
<stop stop-color="#2453B3"/>
<stop offset="1" stop-color="#3071F2"/>
</linearGradient>
</defs>
</svg>
