<svg width="382" height="214" viewBox="0 0 382 214" fill="none" xmlns="http://www.w3.org/2000/svg">
<g filter="url(#filter0_d_2149_28795)">
<rect x="-471.355" y="4.64458" width="826.711" height="296.422" rx="14.5723" fill="white" stroke="#E6E6ED" stroke-width="0.710843"/>
<path d="M-471 61.8675H355V95.9879H-471V61.8675Z" fill="#F7F7FC"/>
<path d="M54.3779 82.8193C56.8981 82.8193 58.3925 81.2603 58.3925 78.6754C58.3925 76.0986 56.8981 74.5476 54.4344 74.5476H51.5749V82.8193H54.3779ZM53.0733 81.5228V75.8441H54.3496C56.0298 75.8441 56.9062 76.7811 56.9062 78.6754C56.9062 80.5777 56.0298 81.5228 54.3052 81.5228H53.0733ZM63.8194 80.2102C63.8194 81.1553 63.1449 81.6238 62.4987 81.6238C61.7959 81.6238 61.3274 81.127 61.3274 80.3394V76.6156H59.8653V80.5656C59.8653 82.0559 60.7135 82.9001 61.9332 82.9001C62.8622 82.9001 63.5165 82.4113 63.7992 81.7167H63.8638V82.8193H65.2815V76.6156H63.8194V80.2102ZM66.8987 82.8193H68.3608V79.1722C68.3608 78.3846 68.9545 77.8272 69.7582 77.8272C70.0046 77.8272 70.3115 77.8716 70.4368 77.912V76.5671C70.3035 76.5429 70.0733 76.5267 69.9117 76.5267C69.2009 76.5267 68.6071 76.9306 68.381 77.6495H68.3163V76.6156H66.8987V82.8193ZM73.1849 82.9445C74.1582 82.9445 74.7398 82.4881 75.0064 81.9671H75.0549V82.8193H76.4604V78.6673C76.4604 77.0275 75.1235 76.5348 73.9401 76.5348C72.6356 76.5348 71.6339 77.1164 71.3108 78.2473L72.676 78.4411C72.8214 78.017 73.2333 77.6535 73.9482 77.6535C74.6267 77.6535 74.9983 78.0009 74.9983 78.6108V78.635C74.9983 79.055 74.5581 79.0752 73.4635 79.1924C72.2599 79.3216 71.1089 79.6811 71.1089 81.0785C71.1089 82.2983 72.0015 82.9445 73.1849 82.9445ZM73.5645 81.8701C72.9546 81.8701 72.5184 81.5915 72.5184 81.0543C72.5184 80.4929 73.0071 80.2586 73.6614 80.1657C74.0451 80.1132 74.8125 80.0163 75.0023 79.8628V80.5939C75.0023 81.2845 74.445 81.8701 73.5645 81.8701ZM81.1421 76.6156H79.9183V75.1292H78.4562V76.6156H77.5758V77.7464H78.4562V81.1956C78.4482 82.3629 79.2963 82.9364 80.3949 82.9041C80.8109 82.892 81.0977 82.8112 81.2552 82.7587L81.0088 81.6157C80.928 81.6359 80.7624 81.6722 80.5807 81.6722C80.2132 81.6722 79.9183 81.543 79.9183 80.9533V77.7464H81.1421V76.6156ZM82.4786 82.8193H83.9407V76.6156H82.4786V82.8193ZM83.2137 75.7351C83.6781 75.7351 84.0578 75.3797 84.0578 74.9435C84.0578 74.5032 83.6781 74.1478 83.2137 74.1478C82.7452 74.1478 82.3655 74.5032 82.3655 74.9435C82.3655 75.3797 82.7452 75.7351 83.2137 75.7351ZM88.2639 82.9404C90.0814 82.9404 91.2366 81.6601 91.2366 79.7416C91.2366 77.8191 90.0814 76.5348 88.2639 76.5348C86.4464 76.5348 85.2913 77.8191 85.2913 79.7416C85.2913 81.6601 86.4464 82.9404 88.2639 82.9404ZM88.272 81.7692C87.2663 81.7692 86.7736 80.8725 86.7736 79.7376C86.7736 78.6027 87.2663 77.6939 88.272 77.6939C89.2615 77.6939 89.7543 78.6027 89.7543 79.7376C89.7543 80.8725 89.2615 81.7692 88.272 81.7692ZM94.0533 79.1843C94.0533 78.2876 94.5945 77.7707 95.3659 77.7707C96.1212 77.7707 96.5736 78.2675 96.5736 79.0954V82.8193H98.0357V78.8692C98.0397 77.3829 97.1915 76.5348 95.9112 76.5348C94.9823 76.5348 94.3441 76.9791 94.0614 77.6697H93.9887V76.6156H92.5912V82.8193H94.0533V79.1843Z" fill="#888A95"/>
<path d="M106.334 76.4398L109 73.7741L111.666 76.4398" stroke="#A6A8B3" stroke-width="1.06627" stroke-linecap="round" stroke-linejoin="round"/>
<path d="M106.334 81.4157L109 84.0813L111.666 81.4157" stroke="#A6A8B3" stroke-width="1.06627" stroke-linecap="round" stroke-linejoin="round"/>
<path d="M166.732 82.8193H168.23V80.0244H169.813C171.724 80.0244 172.75 78.8773 172.75 77.286C172.75 75.7068 171.736 74.5476 169.833 74.5476H166.732V82.8193ZM168.23 78.7925V75.7997H169.603C170.726 75.7997 171.223 76.4055 171.223 77.286C171.223 78.1665 170.726 78.7925 169.611 78.7925H168.23ZM175.774 82.9445C176.748 82.9445 177.329 82.4881 177.596 81.9671H177.644V82.8193H179.05V78.6673C179.05 77.0275 177.713 76.5348 176.53 76.5348C175.225 76.5348 174.223 77.1164 173.9 78.2473L175.265 78.4411C175.411 78.017 175.823 77.6535 176.538 77.6535C177.216 77.6535 177.588 78.0009 177.588 78.6108V78.635C177.588 79.055 177.148 79.0752 176.053 79.1924C174.849 79.3216 173.698 79.6811 173.698 81.0785C173.698 82.2983 174.591 82.9445 175.774 82.9445ZM176.154 81.8701C175.544 81.8701 175.108 81.5915 175.108 81.0543C175.108 80.4929 175.597 80.2586 176.251 80.1657C176.635 80.1132 177.402 80.0163 177.592 79.8628V80.5939C177.592 81.2845 177.034 81.8701 176.154 81.8701ZM181.32 85.1457C182.459 85.1457 183.118 84.56 183.469 83.5705L185.961 76.6236L184.398 76.6156L182.964 81.3007H182.9L181.47 76.6156H179.919L182.169 82.9485L182.043 83.2837C181.773 83.9906 181.345 84.039 180.706 83.8532L180.367 84.9922C180.565 85.073 180.921 85.1457 181.32 85.1457Z" fill="#888A95"/>
<path d="M193.491 76.4398L196.157 73.7741L198.823 76.4398" stroke="#A6A8B3" stroke-width="1.06627" stroke-linecap="round" stroke-linejoin="round"/>
<path d="M193.491 81.4157L196.157 84.0813L198.823 81.4157" stroke="#3071F2" stroke-width="1.06627" stroke-linecap="round" stroke-linejoin="round"/>
<path d="M267.901 76.8215H269.343C269.315 75.4241 268.124 74.4346 266.363 74.4346C264.626 74.4346 263.321 75.412 263.325 76.874C263.325 78.0615 264.17 78.744 265.531 79.0954L266.472 79.3378C267.364 79.5639 267.954 79.8426 267.958 80.4848C267.954 81.1916 267.284 81.6642 266.306 81.6642C265.369 81.6642 264.642 81.2441 264.582 80.3758H263.107C263.168 82.0196 264.392 82.9445 266.318 82.9445C268.301 82.9445 269.452 81.955 269.456 80.4969C269.452 79.0631 268.269 78.4088 267.025 78.114L266.25 77.9201C265.571 77.7586 264.836 77.4718 264.844 76.7811C264.848 76.1592 265.405 75.7028 266.342 75.7028C267.235 75.7028 267.825 76.1188 267.901 76.8215ZM273.939 76.6156H272.715V75.1292H271.253V76.6156H270.373V77.7464H271.253V81.1956C271.245 82.3629 272.093 82.9364 273.192 82.9041C273.608 82.892 273.895 82.8112 274.052 82.7587L273.806 81.6157C273.725 81.6359 273.56 81.6722 273.378 81.6722C273.01 81.6722 272.715 81.543 272.715 80.9533V77.7464H273.939V76.6156ZM277.061 82.9445C278.034 82.9445 278.616 82.4881 278.882 81.9671H278.931V82.8193H280.336V78.6673C280.336 77.0275 279 76.5348 277.816 76.5348C276.512 76.5348 275.51 77.1164 275.187 78.2473L276.552 78.4411C276.697 78.017 277.109 77.6535 277.824 77.6535C278.503 77.6535 278.874 78.0009 278.874 78.6108V78.635C278.874 79.055 278.434 79.0752 277.34 79.1924C276.136 79.3216 274.985 79.6811 274.985 81.0785C274.985 82.2983 275.878 82.9445 277.061 82.9445ZM277.441 81.8701C276.831 81.8701 276.395 81.5915 276.395 81.0543C276.395 80.4929 276.883 80.2586 277.538 80.1657C277.921 80.1132 278.689 80.0163 278.878 79.8628V80.5939C278.878 81.2845 278.321 81.8701 277.441 81.8701ZM285.018 76.6156H283.794V75.1292H282.332V76.6156H281.452V77.7464H282.332V81.1956C282.324 82.3629 283.172 82.9364 284.271 82.9041C284.687 82.892 284.974 82.8112 285.131 82.7587L284.885 81.6157C284.804 81.6359 284.639 81.6722 284.457 81.6722C284.089 81.6722 283.794 81.543 283.794 80.9533V77.7464H285.018V76.6156ZM290.309 80.2102C290.309 81.1553 289.634 81.6238 288.988 81.6238C288.285 81.6238 287.817 81.127 287.817 80.3394V76.6156H286.355V80.5656C286.355 82.0559 287.203 82.9001 288.423 82.9001C289.352 82.9001 290.006 82.4113 290.289 81.7167H290.353V82.8193H291.771V76.6156H290.309V80.2102ZM298.291 78.2553C298.089 77.2052 297.249 76.5348 295.795 76.5348C294.301 76.5348 293.283 77.2698 293.287 78.4169C293.283 79.3216 293.84 79.9194 295.032 80.1657L296.09 80.3879C296.66 80.5131 296.926 80.7433 296.926 81.0947C296.926 81.5188 296.466 81.8378 295.771 81.8378C295.101 81.8378 294.664 81.547 294.539 80.9897L293.113 81.127C293.295 82.2659 294.252 82.9404 295.775 82.9404C297.326 82.9404 298.42 82.1367 298.425 80.9614C298.42 80.0769 297.851 79.5357 296.68 79.2812L295.622 79.055C294.991 78.9137 294.741 78.6956 294.745 78.3361C294.741 77.9161 295.206 77.6253 295.815 77.6253C296.49 77.6253 296.845 77.9928 296.958 78.4007L298.291 78.2553Z" fill="#888A95"/>
<line x1="-453.94" y1="146.633" x2="337.94" y2="146.633" stroke="#E6E6ED" stroke-width="0.710843"/>
<path d="M54.4102 125.975C56.0136 125.975 57.2051 124.969 57.2051 123.616C57.2051 122.566 56.5831 121.802 55.5411 121.629V121.564C56.3771 121.31 56.8981 120.623 56.8981 119.69C56.8981 118.519 55.9732 117.477 54.4425 117.477C53.0127 117.477 51.8253 118.357 51.7768 119.658H52.7462C52.7825 118.834 53.5661 118.349 54.4263 118.349C55.3391 118.349 55.9288 118.902 55.9288 119.738C55.9288 120.611 55.2462 121.176 54.2648 121.176H53.6024V122.065H54.2648C55.5209 122.065 56.2196 122.703 56.2196 123.616C56.2196 124.492 55.4563 125.086 54.394 125.086C53.4368 125.086 52.6775 124.593 52.6169 123.794H51.5991C51.6597 125.094 52.8067 125.975 54.4102 125.975ZM63.0251 122.13C63.0251 121.047 63.7158 120.433 64.6568 120.433C65.5535 120.433 66.0947 120.999 66.0947 121.984V125.861H67.0478V121.919C67.0478 120.324 66.1997 119.577 64.9315 119.577C63.9541 119.577 63.3967 119.985 63.1059 120.627H63.0251V117.59H62.0719V125.861H63.0251V122.13ZM74.7692 125.975C76.3726 125.975 77.5641 124.969 77.5641 123.616C77.5641 122.566 76.9421 121.802 75.9001 121.629V121.564C76.7361 121.31 77.2571 120.623 77.2571 119.69C77.2571 118.519 76.3322 117.477 74.8015 117.477C73.3717 117.477 72.1843 118.357 72.1358 119.658H73.1052C73.1415 118.834 73.9251 118.349 74.7853 118.349C75.6981 118.349 76.2878 118.902 76.2878 119.738C76.2878 120.611 75.6052 121.176 74.6238 121.176H73.9614V122.065H74.6238C75.8799 122.065 76.5786 122.703 76.5786 123.616C76.5786 124.492 75.8153 125.086 74.753 125.086C73.7958 125.086 73.0365 124.593 72.9759 123.794H71.9581C72.0187 125.094 73.1657 125.975 74.7692 125.975ZM81.914 125.975C83.7395 125.975 84.7897 124.428 84.7897 121.726C84.7897 119.044 83.7234 117.477 81.914 117.477C80.1045 117.477 79.0383 119.044 79.0383 121.726C79.0383 124.428 80.0884 125.975 81.914 125.975ZM81.914 125.086C80.7104 125.086 80.0076 123.878 80.0076 121.726C80.0076 119.577 80.7185 118.349 81.914 118.349C83.1095 118.349 83.8203 119.577 83.8203 121.726C83.8203 123.878 83.1176 125.086 81.914 125.086ZM89.5394 125.861H90.4926V121.984C90.4926 121.075 91.1549 120.433 91.8981 120.433C92.621 120.433 93.1259 120.906 93.1259 121.613V125.861H94.0952V121.823C94.0952 121.023 94.5961 120.433 95.4685 120.433C96.147 120.433 96.7286 120.793 96.7286 121.709V125.861H97.6818V121.709C97.6818 120.251 96.8982 119.577 95.7916 119.577C94.903 119.577 94.2528 119.985 93.9337 120.627H93.8691C93.5621 119.965 93.0209 119.577 92.205 119.577C91.3973 119.577 90.7995 119.965 90.541 120.627H90.4602V119.658H89.5394V125.861ZM99.4245 125.861H100.378V119.658H99.4245V125.861ZM99.9092 118.624C100.281 118.624 100.588 118.333 100.588 117.978C100.588 117.622 100.281 117.331 99.9092 117.331C99.5376 117.331 99.2307 117.622 99.2307 117.978C99.2307 118.333 99.5376 118.624 99.9092 118.624ZM103.077 122.13C103.077 121.047 103.747 120.433 104.66 120.433C105.544 120.433 106.082 121.011 106.082 121.984V125.861H107.035V121.919C107.035 120.336 106.191 119.577 104.935 119.577C103.998 119.577 103.416 119.997 103.125 120.627H103.044V119.658H102.124V125.861H103.077V122.13Z" fill="#0A0A0A"/>
<path d="M172.661 125.861V124.617H168.82C169.05 124.311 169.123 123.931 169.111 123.47L169.103 123.26H170.823V122.416H169.07L169.042 121.766H170.823V120.926H169.01L168.969 119.908C168.969 119.129 169.486 118.729 170.032 118.729C170.589 118.729 171.167 118.999 171.167 119.759H172.592C172.588 118.394 171.667 117.477 170.08 117.477C168.549 117.477 167.459 118.394 167.507 119.908L167.54 120.926H166.679V121.766H167.564L167.584 122.416H166.679V123.26H167.608L167.616 123.535C167.629 123.979 167.536 124.529 167.18 124.617H166.691V125.861H172.661ZM177.204 125.975C178.953 125.975 180.173 124.787 180.173 123.143C180.173 121.552 179.066 120.405 177.564 120.405C176.893 120.405 176.3 120.671 175.993 121.035H175.944L176.182 118.842H179.741V117.59H174.943L174.51 121.855L175.863 122.077C176.142 121.77 176.667 121.564 177.164 121.568C178.073 121.572 178.727 122.243 178.723 123.18C178.727 124.105 178.089 124.763 177.204 124.763C176.457 124.763 175.855 124.29 175.803 123.612H174.349C174.389 124.985 175.589 125.975 177.204 125.975ZM181.49 124.327H185.436V125.861H186.866V124.327H187.924V123.095H186.866V117.59H185L181.49 123.135V124.327ZM185.452 123.095H183.025V123.03L185.388 119.286H185.452V123.095ZM190.012 125.95C190.488 125.95 190.896 125.554 190.9 125.062C190.896 124.577 190.488 124.181 190.012 124.181C189.519 124.181 189.119 124.577 189.123 125.062C189.119 125.554 189.519 125.95 190.012 125.95ZM195.283 125.975C197.032 125.975 198.252 124.787 198.252 123.143C198.252 121.552 197.145 120.405 195.643 120.405C194.972 120.405 194.379 120.671 194.072 121.035H194.023L194.261 118.842H197.82V117.59H193.022L192.589 121.855L193.942 122.077C194.221 121.77 194.746 121.564 195.243 121.568C196.152 121.572 196.806 122.243 196.802 123.18C196.806 124.105 196.168 124.763 195.283 124.763C194.536 124.763 193.934 124.29 193.882 123.612H192.428C192.468 124.985 193.668 125.975 195.283 125.975ZM202.776 126.019C204.771 126.023 205.963 124.448 205.963 121.734C205.963 119.036 204.763 117.477 202.776 117.477C200.789 117.477 199.593 119.032 199.589 121.734C199.589 124.444 200.781 126.019 202.776 126.019ZM202.776 124.755C201.746 124.755 201.1 123.721 201.104 121.734C201.108 119.763 201.75 118.725 202.776 118.725C203.806 118.725 204.448 119.763 204.452 121.734C204.452 123.721 203.81 124.755 202.776 124.755Z" fill="#0A0A0A"/>
<rect x="262.59" y="111.626" width="69.747" height="20.6867" rx="10.3434" fill="#3DCC70"/>
<path d="M275.607 125.47L276.204 123.685H278.926L279.526 125.47H280.926L278.374 118.232H276.756L274.208 125.47H275.607ZM276.558 122.632L277.537 119.716H277.593L278.572 122.632H276.558ZM284.025 125.576C285.389 125.576 286.259 124.767 286.351 123.615H285.128C285.018 124.198 284.598 124.533 284.036 124.533C283.237 124.533 282.721 123.865 282.721 122.756C282.721 121.66 283.248 121.003 284.036 121.003C284.651 121.003 285.029 121.399 285.128 121.922H286.351C286.262 120.745 285.343 119.971 284.018 119.971C282.428 119.971 281.424 121.119 281.424 122.777C281.424 124.42 282.403 125.576 284.025 125.576ZM289.769 125.576C291.133 125.576 292.002 124.767 292.094 123.615H290.872C290.762 124.198 290.341 124.533 289.78 124.533C288.981 124.533 288.465 123.865 288.465 122.756C288.465 121.66 288.991 121.003 289.78 121.003C290.394 121.003 290.773 121.399 290.872 121.922H292.094C292.006 120.745 291.087 119.971 289.762 119.971C288.172 119.971 287.168 121.119 287.168 122.777C287.168 124.42 288.147 125.576 289.769 125.576ZM295.548 125.576C296.813 125.576 297.682 124.957 297.909 124.014L296.714 123.88C296.541 124.339 296.117 124.579 295.566 124.579C294.739 124.579 294.191 124.035 294.18 123.106H297.962V122.713C297.962 120.808 296.817 119.971 295.481 119.971C293.926 119.971 292.912 121.112 292.912 122.788C292.912 124.491 293.912 125.576 295.548 125.576ZM294.184 122.243C294.223 121.551 294.735 120.968 295.498 120.968C296.234 120.968 296.728 121.505 296.735 122.243H294.184ZM299.044 127.505H300.323V124.615H300.376C300.578 125.01 300.998 125.565 301.931 125.565C303.211 125.565 304.168 124.551 304.168 122.763C304.168 120.953 303.182 119.971 301.928 119.971C300.97 119.971 300.571 120.547 300.376 120.939H300.302V120.042H299.044V127.505ZM300.299 122.756C300.299 121.703 300.751 121.021 301.574 121.021C302.426 121.021 302.864 121.745 302.864 122.756C302.864 123.774 302.419 124.516 301.574 124.516C300.758 124.516 300.299 123.809 300.299 122.756ZM307.974 120.042H306.904V118.741H305.624V120.042H304.854V121.031H305.624V124.049C305.617 125.071 306.359 125.572 307.321 125.544C307.685 125.533 307.936 125.463 308.073 125.417L307.858 124.417C307.787 124.434 307.642 124.466 307.483 124.466C307.162 124.466 306.904 124.353 306.904 123.837V121.031H307.974V120.042ZM311.389 125.576C312.654 125.576 313.524 124.957 313.75 124.014L312.555 123.88C312.382 124.339 311.958 124.579 311.407 124.579C310.58 124.579 310.032 124.035 310.021 123.106H313.803V122.713C313.803 120.808 312.658 119.971 311.322 119.971C309.767 119.971 308.753 121.112 308.753 122.788C308.753 124.491 309.753 125.576 311.389 125.576ZM310.025 122.243C310.064 121.551 310.576 120.968 311.34 120.968C312.075 120.968 312.57 121.505 312.577 122.243H310.025ZM316.9 125.565C317.833 125.565 318.253 125.01 318.455 124.615H318.532V125.47H319.79V118.232H318.508V120.939H318.455C318.26 120.547 317.861 119.971 316.903 119.971C315.649 119.971 314.663 120.953 314.663 122.763C314.663 124.551 315.62 125.565 316.9 125.565ZM317.257 124.516C316.412 124.516 315.967 123.774 315.967 122.756C315.967 121.745 316.405 121.021 317.257 121.021C318.08 121.021 318.532 121.703 318.532 122.756C318.532 123.809 318.073 124.516 317.257 124.516Z" fill="white"/>
<line x1="-453.94" y1="197.813" x2="337.94" y2="197.813" stroke="#E6E6ED" stroke-width="0.710843"/>
<path d="M-64.8984 168.771H-65.9L-67.9679 170.144V171.162L-65.9485 169.821H-65.9V177.042H-64.8984V168.771ZM-62.261 177.042H-61.2109L-57.5274 169.708V168.771H-62.8264V169.659H-58.5614V169.724L-62.261 177.042ZM-55.6998 175.984C-55.3 175.984 -54.9728 175.657 -54.9728 175.257C-54.9728 174.857 -55.3 174.53 -55.6998 174.53C-56.0997 174.53 -56.4268 174.857 -56.4268 175.257C-56.4268 175.657 -56.0997 175.984 -55.6998 175.984ZM-55.6998 171.8C-55.3 171.8 -54.9728 171.473 -54.9728 171.073C-54.9728 170.673 -55.3 170.346 -55.6998 170.346C-56.0997 170.346 -56.4268 170.673 -56.4268 171.073C-56.4268 171.473 -56.0997 171.8 -55.6998 171.8ZM-50.4836 177.155C-48.8801 177.155 -47.6887 176.15 -47.6887 174.797C-47.6887 173.746 -48.3107 172.983 -49.3527 172.809V172.745C-48.5166 172.49 -47.9956 171.804 -47.9956 170.871C-47.9956 169.699 -48.9205 168.657 -50.4513 168.657C-51.881 168.657 -53.0685 169.538 -53.1169 170.838H-52.1476C-52.1113 170.015 -51.3277 169.53 -50.4674 169.53C-49.5546 169.53 -48.965 170.083 -48.965 170.919C-48.965 171.792 -49.6475 172.357 -50.629 172.357H-51.2914V173.246H-50.629C-49.3729 173.246 -48.6742 173.884 -48.6742 174.797C-48.6742 175.673 -49.4375 176.267 -50.4997 176.267C-51.457 176.267 -52.2163 175.774 -52.2768 174.974H-53.2946C-53.2341 176.275 -52.087 177.155 -50.4836 177.155ZM-43.3388 177.155C-41.5132 177.155 -40.4631 175.608 -40.4631 172.906C-40.4631 170.225 -41.5294 168.657 -43.3388 168.657C-45.1482 168.657 -46.2145 170.225 -46.2145 172.906C-46.2145 175.608 -45.1644 177.155 -43.3388 177.155ZM-43.3388 176.267C-44.5424 176.267 -45.2452 175.059 -45.2452 172.906C-45.2452 170.758 -44.5343 169.53 -43.3388 169.53C-42.1433 169.53 -41.4324 170.758 -41.4324 172.906C-41.4324 175.059 -42.1352 176.267 -43.3388 176.267ZM-32.1592 172.462H-35.778V173.351H-32.1592V172.462ZM-27.2994 177.042H-22.0812V176.154H-25.9262V176.089L-24.0683 174.102C-22.6466 172.579 -22.2266 171.868 -22.2266 170.952C-22.2266 169.675 -23.2605 168.657 -24.7145 168.657C-26.1645 168.657 -27.2671 169.643 -27.2671 171.097H-26.3139C-26.3139 170.156 -25.704 169.53 -24.7468 169.53C-23.8502 169.53 -23.1636 170.079 -23.1636 170.952C-23.1636 171.715 -23.6119 172.28 -24.5691 173.326L-27.2994 176.315V177.042ZM-17.5051 168.771H-18.5067L-20.5746 170.144V171.162L-18.5552 169.821H-18.5067V177.042H-17.5051V168.771ZM-14.4154 175.984C-14.0155 175.984 -13.6884 175.657 -13.6884 175.257C-13.6884 174.857 -14.0155 174.53 -14.4154 174.53C-14.8152 174.53 -15.1423 174.857 -15.1423 175.257C-15.1423 175.657 -14.8152 175.984 -14.4154 175.984ZM-14.4154 171.8C-14.0155 171.8 -13.6884 171.473 -13.6884 171.073C-13.6884 170.673 -14.0155 170.346 -14.4154 170.346C-14.8152 170.346 -15.1423 170.673 -15.1423 171.073C-15.1423 171.473 -14.8152 171.8 -14.4154 171.8ZM-9.29607 177.155C-7.47049 177.155 -6.42038 175.608 -6.42038 172.906C-6.42038 170.225 -7.48665 168.657 -9.29607 168.657C-11.1055 168.657 -12.1718 170.225 -12.1718 172.906C-12.1718 175.608 -11.1216 177.155 -9.29607 177.155ZM-9.29607 176.267C-10.4997 176.267 -11.2024 175.059 -11.2024 172.906C-11.2024 170.758 -10.4916 169.53 -9.29607 169.53C-8.10056 169.53 -7.38971 170.758 -7.38971 172.906C-7.38971 175.059 -8.09248 176.267 -9.29607 176.267ZM-2.18763 177.155C-0.36206 177.155 0.68805 175.608 0.68805 172.906C0.68805 170.225 -0.378215 168.657 -2.18763 168.657C-3.99705 168.657 -5.06332 170.225 -5.06332 172.906C-5.06332 175.608 -4.01321 177.155 -2.18763 177.155ZM-2.18763 176.267C-3.39122 176.267 -4.09399 175.059 -4.09399 172.906C-4.09399 170.758 -3.38314 169.53 -2.18763 169.53C-0.992125 169.53 -0.281282 170.758 -0.281282 172.906C-0.281282 175.059 -0.984048 176.267 -2.18763 176.267Z" fill="#0A0A0A"/>
<path d="M54.4102 177.155C56.0136 177.155 57.2051 176.15 57.2051 174.797C57.2051 173.746 56.5831 172.983 55.5411 172.809V172.745C56.3771 172.49 56.8981 171.804 56.8981 170.871C56.8981 169.699 55.9732 168.657 54.4425 168.657C53.0127 168.657 51.8253 169.538 51.7768 170.838H52.7462C52.7825 170.015 53.5661 169.53 54.4263 169.53C55.3391 169.53 55.9288 170.083 55.9288 170.919C55.9288 171.792 55.2462 172.357 54.2648 172.357H53.6024V173.246H54.2648C55.5209 173.246 56.2196 173.884 56.2196 174.797C56.2196 175.673 55.4563 176.267 54.394 176.267C53.4368 176.267 52.6775 175.774 52.6169 174.974H51.5991C51.6597 176.275 52.8067 177.155 54.4102 177.155ZM63.0251 173.31C63.0251 172.228 63.7158 171.614 64.6568 171.614C65.5535 171.614 66.0947 172.179 66.0947 173.165V177.042H67.0478V173.1C67.0478 171.505 66.1997 170.758 64.9315 170.758C63.9541 170.758 63.3967 171.166 63.1059 171.808H63.0251V168.771H62.0719V177.042H63.0251V173.31ZM74.7692 177.155C76.3726 177.155 77.5641 176.15 77.5641 174.797C77.5641 173.746 76.9421 172.983 75.9001 172.809V172.745C76.7361 172.49 77.2571 171.804 77.2571 170.871C77.2571 169.699 76.3322 168.657 74.8015 168.657C73.3717 168.657 72.1843 169.538 72.1358 170.838H73.1052C73.1415 170.015 73.9251 169.53 74.7853 169.53C75.6981 169.53 76.2878 170.083 76.2878 170.919C76.2878 171.792 75.6052 172.357 74.6238 172.357H73.9614V173.246H74.6238C75.8799 173.246 76.5786 173.884 76.5786 174.797C76.5786 175.673 75.8153 176.267 74.753 176.267C73.7958 176.267 73.0365 175.774 72.9759 174.974H71.9581C72.0187 176.275 73.1657 177.155 74.7692 177.155ZM81.914 177.155C83.7395 177.155 84.7897 175.608 84.7897 172.906C84.7897 170.225 83.7234 168.657 81.914 168.657C80.1045 168.657 79.0383 170.225 79.0383 172.906C79.0383 175.608 80.0884 177.155 81.914 177.155ZM81.914 176.267C80.7104 176.267 80.0076 175.059 80.0076 172.906C80.0076 170.758 80.7185 169.53 81.914 169.53C83.1095 169.53 83.8203 170.758 83.8203 172.906C83.8203 175.059 83.1176 176.267 81.914 176.267ZM89.5394 177.042H90.4926V173.165C90.4926 172.256 91.1549 171.614 91.8981 171.614C92.621 171.614 93.1259 172.086 93.1259 172.793V177.042H94.0952V173.003C94.0952 172.204 94.5961 171.614 95.4685 171.614C96.147 171.614 96.7286 171.973 96.7286 172.89V177.042H97.6818V172.89C97.6818 171.432 96.8982 170.758 95.7916 170.758C94.903 170.758 94.2528 171.166 93.9337 171.808H93.8691C93.5621 171.145 93.0209 170.758 92.205 170.758C91.3973 170.758 90.7995 171.145 90.541 171.808H90.4602V170.838H89.5394V177.042ZM99.4245 177.042H100.378V170.838H99.4245V177.042ZM99.9092 169.804C100.281 169.804 100.588 169.514 100.588 169.158C100.588 168.803 100.281 168.512 99.9092 168.512C99.5376 168.512 99.2307 168.803 99.2307 169.158C99.2307 169.514 99.5376 169.804 99.9092 169.804ZM103.077 173.31C103.077 172.228 103.747 171.614 104.66 171.614C105.544 171.614 106.082 172.191 106.082 173.165V177.042H107.035V173.1C107.035 171.517 106.191 170.758 104.935 170.758C103.998 170.758 103.416 171.178 103.125 171.808H103.044V170.838H102.124V177.042H103.077V173.31Z" fill="#0A0A0A"/>
<path d="M172.661 177.042V175.798H168.82C169.05 175.491 169.123 175.112 169.111 174.651L169.103 174.441H170.823V173.597H169.07L169.042 172.947H170.823V172.107H169.01L168.969 171.089C168.969 170.309 169.486 169.909 170.032 169.909C170.589 169.909 171.167 170.18 171.167 170.939H172.592C172.588 169.574 171.667 168.657 170.08 168.657C168.549 168.657 167.459 169.574 167.507 171.089L167.54 172.107H166.679V172.947H167.564L167.584 173.597H166.679V174.441H167.608L167.616 174.716C167.629 175.16 167.536 175.709 167.18 175.798H166.691V177.042H172.661ZM174.179 175.507H178.125V177.042H179.555V175.507H180.613V174.276H179.555V168.771H177.689L174.179 174.316V175.507ZM178.141 174.276H175.714V174.211L178.077 170.467H178.141V174.276ZM184.893 177.155C186.642 177.155 187.862 175.968 187.862 174.324C187.862 172.733 186.755 171.586 185.252 171.586C184.582 171.586 183.988 171.852 183.681 172.216H183.633L183.871 170.023H187.429V168.771H182.631L182.199 173.036L183.552 173.258C183.831 172.951 184.356 172.745 184.853 172.749C185.761 172.753 186.416 173.423 186.412 174.36C186.416 175.285 185.778 175.944 184.893 175.944C184.146 175.944 183.544 175.471 183.491 174.793H182.037C182.078 176.166 183.277 177.155 184.893 177.155ZM189.967 177.131C190.444 177.131 190.852 176.735 190.856 176.242C190.852 175.758 190.444 175.362 189.967 175.362C189.475 175.362 189.075 175.758 189.079 176.242C189.075 176.735 189.475 177.131 189.967 177.131ZM195.239 177.155C196.988 177.155 198.207 175.968 198.207 174.324C198.207 172.733 197.101 171.586 195.598 171.586C194.928 171.586 194.334 171.852 194.027 172.216H193.979L194.217 170.023H197.775V168.771H192.977L192.545 173.036L193.898 173.258C194.177 172.951 194.702 172.745 195.198 172.749C196.107 172.753 196.762 173.423 196.757 174.36C196.762 175.285 196.123 175.944 195.239 175.944C194.492 175.944 193.89 175.471 193.837 174.793H192.383C192.424 176.166 193.623 177.155 195.239 177.155ZM202.732 177.2C204.727 177.204 205.918 175.629 205.918 172.914C205.918 170.216 204.719 168.657 202.732 168.657C200.745 168.657 199.549 170.212 199.545 172.914C199.545 175.625 200.736 177.2 202.732 177.2ZM202.732 175.936C201.702 175.936 201.056 174.902 201.06 172.914C201.064 170.943 201.706 169.905 202.732 169.905C203.762 169.905 204.404 170.943 204.408 172.914C204.408 174.902 203.766 175.936 202.732 175.936Z" fill="#0A0A0A"/>
<rect x="262.59" y="162.807" width="69.747" height="20.6867" rx="10.3434" fill="#3DCC70"/>
<path d="M275.607 176.651L276.204 174.866H278.926L279.526 176.651H280.926L278.374 169.413H276.756L274.208 176.651H275.607ZM276.558 173.813L277.537 170.897H277.593L278.572 173.813H276.558ZM284.025 176.757C285.389 176.757 286.259 175.947 286.351 174.795H285.128C285.018 175.378 284.598 175.714 284.036 175.714C283.237 175.714 282.721 175.046 282.721 173.936C282.721 172.841 283.248 172.184 284.036 172.184C284.651 172.184 285.029 172.579 285.128 173.102H286.351C286.262 171.926 285.343 171.152 284.018 171.152C282.428 171.152 281.424 172.3 281.424 173.958C281.424 175.601 282.403 176.757 284.025 176.757ZM289.769 176.757C291.133 176.757 292.002 175.947 292.094 174.795H290.872C290.762 175.378 290.341 175.714 289.78 175.714C288.981 175.714 288.465 175.046 288.465 173.936C288.465 172.841 288.991 172.184 289.78 172.184C290.394 172.184 290.773 172.579 290.872 173.102H292.094C292.006 171.926 291.087 171.152 289.762 171.152C288.172 171.152 287.168 172.3 287.168 173.958C287.168 175.601 288.147 176.757 289.769 176.757ZM295.548 176.757C296.813 176.757 297.682 176.138 297.909 175.195L296.714 175.06C296.541 175.52 296.117 175.76 295.566 175.76C294.739 175.76 294.191 175.216 294.18 174.286H297.962V173.894C297.962 171.989 296.817 171.152 295.481 171.152C293.926 171.152 292.912 172.293 292.912 173.968C292.912 175.672 293.912 176.757 295.548 176.757ZM294.184 173.424C294.223 172.731 294.735 172.148 295.498 172.148C296.234 172.148 296.728 172.685 296.735 173.424H294.184ZM299.044 178.686H300.323V175.795H300.376C300.578 176.191 300.998 176.746 301.931 176.746C303.211 176.746 304.168 175.732 304.168 173.944C304.168 172.134 303.182 171.152 301.928 171.152C300.97 171.152 300.571 171.728 300.376 172.12H300.302V171.222H299.044V178.686ZM300.299 173.936C300.299 172.883 300.751 172.201 301.574 172.201C302.426 172.201 302.864 172.926 302.864 173.936C302.864 174.954 302.419 175.696 301.574 175.696C300.758 175.696 300.299 174.99 300.299 173.936ZM307.974 171.222H306.904V169.922H305.624V171.222H304.854V172.212H305.624V175.23C305.617 176.251 306.359 176.753 307.321 176.725C307.685 176.714 307.936 176.644 308.073 176.598L307.858 175.597C307.787 175.615 307.642 175.647 307.483 175.647C307.162 175.647 306.904 175.534 306.904 175.018V172.212H307.974V171.222ZM311.389 176.757C312.654 176.757 313.524 176.138 313.75 175.195L312.555 175.06C312.382 175.52 311.958 175.76 311.407 175.76C310.58 175.76 310.032 175.216 310.021 174.286H313.803V173.894C313.803 171.989 312.658 171.152 311.322 171.152C309.767 171.152 308.753 172.293 308.753 173.968C308.753 175.672 309.753 176.757 311.389 176.757ZM310.025 173.424C310.064 172.731 310.576 172.148 311.34 172.148C312.075 172.148 312.57 172.685 312.577 173.424H310.025ZM316.9 176.746C317.833 176.746 318.253 176.191 318.455 175.795H318.532V176.651H319.79V169.413H318.508V172.12H318.455C318.26 171.728 317.861 171.152 316.903 171.152C315.649 171.152 314.663 172.134 314.663 173.944C314.663 175.732 315.62 176.746 316.9 176.746ZM317.257 175.696C316.412 175.696 315.967 174.954 315.967 173.936C315.967 172.926 316.405 172.201 317.257 172.201C318.08 172.201 318.532 172.883 318.532 173.936C318.532 174.99 318.073 175.696 317.257 175.696Z" fill="white"/>
<rect x="262.59" y="213.988" width="69.747" height="20.6867" rx="10.3434" fill="#3DCC70"/>
<g filter="url(#filter1_d_2149_28795)">
<path d="M-471 19.2169C-471 11.3651 -464.635 5 -456.783 5H340.783C348.635 5 355 11.3651 355 19.2169V61.8675H-471V19.2169Z" fill="white" shape-rendering="crispEdges"/>
</g>
</g>
<defs>
<filter id="filter0_d_2149_28795" x="-485.711" y="4.28915" width="867.422" height="343.133" filterUnits="userSpaceOnUse" color-interpolation-filters="sRGB">
<feFlood flood-opacity="0" result="BackgroundImageFix"/>
<feColorMatrix in="SourceAlpha" type="matrix" values="0 0 0 0 0 0 0 0 0 0 0 0 0 0 0 0 0 0 127 0" result="hardAlpha"/>
<feOffset dx="6" dy="26"/>
<feGaussianBlur stdDeviation="10"/>
<feComposite in2="hardAlpha" operator="out"/>
<feColorMatrix type="matrix" values="0 0 0 0 0.0198347 0 0 0 0 0.0917356 0 0 0 0 0.2 0 0 0 0.1 0"/>
<feBlend mode="normal" in2="BackgroundImageFix" result="effect1_dropShadow_2149_28795"/>
<feBlend mode="normal" in="SourceGraphic" in2="effect1_dropShadow_2149_28795" result="shape"/>
</filter>
<filter id="filter1_d_2149_28795" x="-476.687" y="0.73494" width="837.373" height="69.0241" filterUnits="userSpaceOnUse" color-interpolation-filters="sRGB">
<feFlood flood-opacity="0" result="BackgroundImageFix"/>
<feColorMatrix in="SourceAlpha" type="matrix" values="0 0 0 0 0 0 0 0 0 0 0 0 0 0 0 0 0 0 127 0" result="hardAlpha"/>
<feOffset dy="1.42169"/>
<feGaussianBlur stdDeviation="2.84337"/>
<feComposite in2="hardAlpha" operator="out"/>
<feColorMatrix type="matrix" values="0 0 0 0 0 0 0 0 0 0 0 0 0 0 0 0 0 0 0.04 0"/>
<feBlend mode="normal" in2="BackgroundImageFix" result="effect1_dropShadow_2149_28795"/>
<feBlend mode="normal" in="SourceGraphic" in2="effect1_dropShadow_2149_28795" result="shape"/>
</filter>
</defs>
</svg>
