<svg width="486" height="338" viewBox="0 0 486 338" fill="none" xmlns="http://www.w3.org/2000/svg">
<g filter="url(#filter0_d_2149_28782)">
<rect x="5.64458" y="8.64458" width="826.711" height="296.422" rx="14.5723" fill="white" stroke="#E6E6ED" stroke-width="0.710843"/>
<path d="M6 65.8675H832V99.9879H6V65.8675Z" fill="#F7F7FC"/>
<path d="M29.5629 86.8193H34.7044V85.5632H31.0614V78.5476H29.5629V86.8193ZM38.7601 86.9404C40.5776 86.9404 41.7327 85.6601 41.7327 83.7416C41.7327 81.8191 40.5776 80.5348 38.7601 80.5348C36.9426 80.5348 35.7875 81.8191 35.7875 83.7416C35.7875 85.6601 36.9426 86.9404 38.7601 86.9404ZM38.7682 85.7692C37.7625 85.7692 37.2698 84.8725 37.2698 83.7376C37.2698 82.6027 37.7625 81.6939 38.7682 81.6939C39.7577 81.6939 40.2505 82.6027 40.2505 83.7376C40.2505 84.8725 39.7577 85.7692 38.7682 85.7692ZM45.7935 86.9404C47.3525 86.9404 48.346 86.0155 48.451 84.6989H47.0536C46.9284 85.3653 46.4478 85.749 45.8056 85.749C44.8928 85.749 44.3031 84.9856 44.3031 83.7174C44.3031 82.4654 44.9049 81.7141 45.8056 81.7141C46.5083 81.7141 46.9405 82.1665 47.0536 82.7642H48.451C48.3501 81.4193 47.3 80.5348 45.7854 80.5348C43.9679 80.5348 42.8208 81.8474 42.8208 83.7416C42.8208 85.6197 43.9396 86.9404 45.7935 86.9404ZM51.5505 86.9445C52.5239 86.9445 53.1055 86.4881 53.3721 85.9671H53.4205V86.8193H54.8261V82.6673C54.8261 81.0275 53.4892 80.5348 52.3058 80.5348C51.0012 80.5348 49.9996 81.1164 49.6765 82.2473L51.0416 82.4411C51.187 82.017 51.599 81.6535 52.3139 81.6535C52.9924 81.6535 53.364 82.0009 53.364 82.6108V82.635C53.364 83.055 52.9237 83.0752 51.8292 83.1924C50.6256 83.3216 49.4745 83.6811 49.4745 85.0785C49.4745 86.2983 50.3671 86.9445 51.5505 86.9445ZM51.9302 85.8701C51.3203 85.8701 50.8841 85.5915 50.8841 85.0543C50.8841 84.4929 51.3728 84.2586 52.0271 84.1657C52.4108 84.1132 53.1782 84.0163 53.368 83.8628V84.5939C53.368 85.2845 52.8107 85.8701 51.9302 85.8701ZM59.5078 80.6156H58.284V79.1292H56.8219V80.6156H55.9414V81.7464H56.8219V85.1956C56.8138 86.3629 57.662 86.9364 58.7606 86.9041C59.1766 86.892 59.4633 86.8112 59.6209 86.7587L59.3745 85.6157C59.2937 85.6359 59.1281 85.6722 58.9464 85.6722C58.5788 85.6722 58.284 85.543 58.284 84.9533V81.7464H59.5078V80.6156ZM60.8443 86.8193H62.3064V80.6156H60.8443V86.8193ZM61.5794 79.7351C62.0438 79.7351 62.4235 79.3797 62.4235 78.9435C62.4235 78.5032 62.0438 78.1478 61.5794 78.1478C61.1108 78.1478 60.7312 78.5032 60.7312 78.9435C60.7312 79.3797 61.1108 79.7351 61.5794 79.7351ZM66.6296 86.9404C68.4471 86.9404 69.6022 85.6601 69.6022 83.7416C69.6022 81.8191 68.4471 80.5348 66.6296 80.5348C64.8121 80.5348 63.657 81.8191 63.657 83.7416C63.657 85.6601 64.8121 86.9404 66.6296 86.9404ZM66.6377 85.7692C65.632 85.7692 65.1393 84.8725 65.1393 83.7376C65.1393 82.6027 65.632 81.6939 66.6377 81.6939C67.6272 81.6939 68.12 82.6027 68.12 83.7376C68.12 84.8725 67.6272 85.7692 66.6377 85.7692ZM72.419 83.1843C72.419 82.2876 72.9602 81.7707 73.7316 81.7707C74.4869 81.7707 74.9392 82.2675 74.9392 83.0954V86.8193H76.4013V82.8692C76.4054 81.3829 75.5572 80.5348 74.2769 80.5348C73.3479 80.5348 72.7098 80.9791 72.4271 81.6697H72.3544V80.6156H70.9569V86.8193H72.419V83.1843Z" fill="#888A95"/>
<path d="M244.197 86.8193C246.718 86.8193 248.212 85.2603 248.212 82.6754C248.212 80.0986 246.718 78.5476 244.254 78.5476H241.394V86.8193H244.197ZM242.893 85.5228V79.8441H244.169C245.849 79.8441 246.726 80.7811 246.726 82.6754C246.726 84.5777 245.849 85.5228 244.125 85.5228H242.893ZM251.47 86.9445C252.443 86.9445 253.025 86.4881 253.292 85.9671H253.34V86.8193H254.746V82.6673C254.746 81.0275 253.409 80.5348 252.225 80.5348C250.921 80.5348 249.919 81.1164 249.596 82.2473L250.961 82.4411C251.107 82.017 251.519 81.6535 252.233 81.6535C252.912 81.6535 253.284 82.0009 253.284 82.6108V82.635C253.284 83.055 252.843 83.0752 251.749 83.1924C250.545 83.3216 249.394 83.6811 249.394 85.0785C249.394 86.2983 250.287 86.9445 251.47 86.9445ZM251.85 85.8701C251.24 85.8701 250.804 85.5915 250.804 85.0543C250.804 84.4929 251.292 84.2586 251.947 84.1657C252.33 84.1132 253.098 84.0163 253.288 83.8628V84.5939C253.288 85.2845 252.73 85.8701 251.85 85.8701ZM257.016 89.1457C258.155 89.1457 258.813 88.56 259.165 87.5705L261.657 80.6236L260.094 80.6156L258.66 85.3007H258.595L257.166 80.6156H255.615L257.864 86.9485L257.739 87.2837C257.468 87.9906 257.04 88.039 256.402 87.8532L256.063 88.9922C256.261 89.073 256.616 89.1457 257.016 89.1457Z" fill="#888A95"/>
<path d="M269.154 80.8313L271.819 78.1656L274.485 80.8313" stroke="#A6A8B3" stroke-width="1.06627" stroke-linecap="round" stroke-linejoin="round"/>
<path d="M269.154 85.8072L271.819 88.4729L274.485 85.8072" stroke="#A6A8B3" stroke-width="1.06627" stroke-linecap="round" stroke-linejoin="round"/>
<path d="M326.655 86.8193C329.175 86.8193 330.67 85.2603 330.67 82.6754C330.67 80.0986 329.175 78.5476 326.712 78.5476H323.852V86.8193H326.655ZM325.35 85.5228V79.8441H326.627C328.307 79.8441 329.183 80.7811 329.183 82.6754C329.183 84.5777 328.307 85.5228 326.582 85.5228H325.35ZM333.928 86.9445C334.901 86.9445 335.483 86.4881 335.749 85.9671H335.798V86.8193H337.203V82.6673C337.203 81.0275 335.866 80.5348 334.683 80.5348C333.378 80.5348 332.377 81.1164 332.054 82.2473L333.419 82.4411C333.564 82.017 333.976 81.6535 334.691 81.6535C335.37 81.6535 335.741 82.0009 335.741 82.6108V82.635C335.741 83.055 335.301 83.0752 334.206 83.1924C333.003 83.3216 331.852 83.6811 331.852 85.0785C331.852 86.2983 332.744 86.9445 333.928 86.9445ZM334.307 85.8701C333.697 85.8701 333.261 85.5915 333.261 85.0543C333.261 84.4929 333.75 84.2586 334.404 84.1657C334.788 84.1132 335.555 84.0163 335.745 83.8628V84.5939C335.745 85.2845 335.188 85.8701 334.307 85.8701ZM341.885 80.6156H340.661V79.1292H339.199V80.6156H338.319V81.7464H339.199V85.1956C339.191 86.3629 340.039 86.9364 341.138 86.9041C341.554 86.892 341.84 86.8112 341.998 86.7587L341.752 85.6157C341.671 85.6359 341.505 85.6722 341.323 85.6722C340.956 85.6722 340.661 85.543 340.661 84.9533V81.7464H341.885V80.6156ZM345.901 86.9404C347.347 86.9404 348.341 86.2336 348.599 85.1553L347.234 85.0018C347.036 85.5268 346.551 85.8015 345.921 85.8015C344.976 85.8015 344.35 85.1795 344.338 84.1173H348.66V83.6689C348.66 81.492 347.351 80.5348 345.824 80.5348C344.047 80.5348 342.888 81.8393 342.888 83.7538C342.888 85.7005 344.031 86.9404 345.901 86.9404ZM344.342 83.1318C344.387 82.3402 344.972 81.6737 345.845 81.6737C346.685 81.6737 347.25 82.2876 347.258 83.1318H344.342Z" fill="#888A95"/>
<path d="M356.611 80.4397L359.277 77.7741L361.943 80.4397" stroke="#A6A8B3" stroke-width="1.06627" stroke-linecap="round" stroke-linejoin="round"/>
<path d="M356.611 85.4157L359.277 88.0813L361.943 85.4157" stroke="#A6A8B3" stroke-width="1.06627" stroke-linecap="round" stroke-linejoin="round"/>
<path d="M408.79 79.8037H411.346V86.8193H412.833V79.8037H415.389V78.5476H408.79V79.8037ZM416.711 86.8193H418.173V80.6156H416.711V86.8193ZM417.446 79.7351C417.91 79.7351 418.29 79.3797 418.29 78.9435C418.29 78.5032 417.91 78.1478 417.446 78.1478C416.977 78.1478 416.598 78.5032 416.598 78.9435C416.598 79.3797 416.977 79.7351 417.446 79.7351ZM419.79 86.8193H421.252V83.047C421.252 82.2836 421.761 81.7666 422.391 81.7666C423.009 81.7666 423.433 82.1826 423.433 82.8208V86.8193H424.867V82.95C424.867 82.2513 425.283 81.7666 425.99 81.7666C426.579 81.7666 427.048 82.114 427.048 82.8814V86.8193H428.514V82.6552C428.514 81.2698 427.714 80.5348 426.575 80.5348C425.675 80.5348 424.988 80.9791 424.713 81.6697H424.649C424.41 80.9669 423.809 80.5348 422.973 80.5348C422.141 80.5348 421.519 80.9629 421.26 81.6697H421.187V80.6156H419.79V86.8193ZM432.857 86.9404C434.303 86.9404 435.297 86.2336 435.555 85.1553L434.19 85.0018C433.992 85.5268 433.508 85.8015 432.878 85.8015C431.932 85.8015 431.306 85.1795 431.294 84.1173H435.616V83.6689C435.616 81.492 434.307 80.5348 432.781 80.5348C431.004 80.5348 429.844 81.8393 429.844 83.7538C429.844 85.7005 430.987 86.9404 432.857 86.9404ZM431.298 83.1318C431.343 82.3402 431.928 81.6737 432.801 81.6737C433.641 81.6737 434.206 82.2876 434.214 83.1318H431.298Z" fill="#888A95"/>
<path d="M442.913 80.4397L445.578 77.7741L448.244 80.4397" stroke="#A6A8B3" stroke-width="1.06627" stroke-linecap="round" stroke-linejoin="round"/>
<path d="M442.913 85.4157L445.578 88.0813L448.244 85.4157" stroke="#A6A8B3" stroke-width="1.06627" stroke-linecap="round" stroke-linejoin="round"/>
<line x1="23.0603" y1="150.633" x2="814.94" y2="150.633" stroke="#E6E6ED" stroke-width="0.710843"/>
<path d="M29.7487 129.861H30.7504V127.18L31.7843 126.016L34.66 129.861H35.8717L32.3982 125.322L35.8717 121.59H34.5631L30.8473 125.693H30.7504V121.59H29.7487V129.861ZM37.9921 126.13C37.9921 125.047 38.6625 124.433 39.5753 124.433C40.4598 124.433 40.997 125.011 40.997 125.984V129.861H41.9502V125.92C41.9502 124.336 41.1061 123.577 39.85 123.577C38.9129 123.577 38.3313 123.997 38.0405 124.627H37.9598V123.658H37.0389V129.861H37.9921V126.13ZM46.2122 129.991C47.8924 129.991 49.0233 128.714 49.0233 126.792C49.0233 124.853 47.8924 123.577 46.2122 123.577C44.532 123.577 43.4011 124.853 43.4011 126.792C43.4011 128.714 44.532 129.991 46.2122 129.991ZM46.2122 129.134C44.9359 129.134 44.3543 128.036 44.3543 126.792C44.3543 125.548 44.9359 124.433 46.2122 124.433C47.4885 124.433 48.0701 125.548 48.0701 126.792C48.0701 128.036 47.4885 129.134 46.2122 129.134ZM51.6728 129.861H52.6098L53.9669 125.096H54.0638L55.4209 129.861H56.3579L58.2481 123.658H57.2464L55.9055 128.391H55.8409L54.5323 123.658H53.5145L52.1898 128.407H52.1251L50.7842 123.658H49.7826L51.6728 129.861ZM63.9025 125.047C63.6036 124.167 62.9332 123.577 61.7054 123.577C60.3968 123.577 59.4274 124.32 59.4274 125.37C59.4274 126.226 59.9363 126.8 61.0753 127.067L62.1093 127.309C62.7353 127.454 63.0301 127.753 63.0301 128.181C63.0301 128.714 62.4647 129.151 61.5761 129.151C60.7966 129.151 60.3079 128.815 60.1383 128.149L59.2336 128.375C59.4557 129.429 60.3241 129.991 61.5923 129.991C63.0342 129.991 64.0156 129.203 64.0156 128.133C64.0156 127.268 63.4744 126.723 62.3677 126.453L61.4469 126.226C60.7118 126.045 60.3806 125.798 60.3806 125.322C60.3806 124.789 60.9461 124.401 61.7054 124.401C62.5374 124.401 62.8807 124.861 63.0463 125.289L63.9025 125.047ZM66.4036 121.59H65.4504V129.861H66.4036V121.59ZM70.7504 129.991C72.0106 129.991 72.9314 129.361 73.2222 128.424L72.3014 128.165C72.059 128.811 71.4976 129.134 70.7504 129.134C69.6317 129.134 68.8602 128.411 68.8158 127.083H73.3192V126.679C73.3192 124.369 71.946 123.577 70.6535 123.577C68.9733 123.577 67.8586 124.902 67.8586 126.808C67.8586 128.714 68.9572 129.991 70.7504 129.991ZM68.8158 126.259C68.8804 125.293 69.563 124.433 70.6535 124.433C71.6875 124.433 72.3498 125.209 72.3498 126.259H68.8158ZM75.1942 132.188C76.0545 132.188 76.6603 131.731 77.0198 130.766L79.6612 123.674L78.6192 123.658L76.9067 128.601H76.8421L75.1296 123.658H74.0956L76.3897 129.894L76.212 130.378C75.8647 131.324 75.4366 131.412 74.7419 131.235L74.4995 132.075C74.5965 132.123 74.8711 132.188 75.1942 132.188ZM84.4604 126.372C84.4604 128.407 85.0097 130.104 85.9952 131.542H86.8353C86.0598 130.475 85.4459 128.294 85.4459 126.372C85.4459 124.449 86.0598 122.268 86.8353 121.202H85.9952C85.0097 122.64 84.4604 124.336 84.4604 126.372ZM90.9237 129.861C93.4439 129.861 94.8656 128.294 94.8656 125.709C94.8656 123.141 93.4439 121.59 91.0367 121.59H88.3711V129.861H90.9237ZM89.3727 128.973V122.478H90.9721C92.9108 122.478 93.8963 123.706 93.8963 125.709C93.8963 127.729 92.9108 128.973 90.859 128.973H89.3727ZM98.0482 129.861H99.0822L100.908 123.27H100.972L102.798 129.861H103.832L106.094 121.59H105.076L103.347 128.327H103.266L101.506 121.59H100.375L98.6137 128.327H98.5329L96.8043 121.59H95.7865L98.0482 129.861ZM113.901 121.59H112.915V128.1H112.835L108.311 121.59H107.342V129.861H108.343V123.367H108.424L112.932 129.861H113.901V121.59ZM118.668 121.59H117.666L115.598 122.963V123.981L117.618 122.64H117.666V129.861H118.668V121.59ZM123.098 125.726C123.098 123.69 122.549 121.994 121.564 120.556H120.724C121.499 121.622 122.113 123.803 122.113 125.726C122.113 127.648 121.499 129.829 120.724 130.895H121.564C122.549 129.458 123.098 127.761 123.098 125.726ZM131.936 125.281H128.318V126.17H131.936V125.281ZM137.281 129.861L138.113 127.519H141.457L142.289 129.861H143.339L140.302 121.59H139.268L136.231 129.861H137.281ZM138.428 126.63L139.753 122.898H139.817L141.142 126.63H138.428ZM144.628 121.59V129.861H145.565V123.577H145.645L148.23 129.861H149.135L151.72 123.577H151.801V129.861H152.738V121.59H151.542L148.731 128.456H148.634L145.823 121.59H144.628ZM154.471 129.861H160.174V128.973H155.667L160.126 122.317V121.59H154.423V122.478H158.93L154.471 129.134V129.861ZM161.855 129.861H166.701V128.973H162.856V121.59H161.855V129.861Z" fill="#0A0A0A"/>
<path d="M243.083 129.861H244.117L245.942 123.27H246.007L247.832 129.861H248.866L251.128 121.59H250.11L248.382 128.327H248.301L246.54 121.59H245.409L243.648 128.327H243.567L241.839 121.59H240.821L243.083 129.861ZM254.27 129.991C255.531 129.991 256.451 129.361 256.742 128.424L255.821 128.165C255.579 128.811 255.018 129.134 254.27 129.134C253.152 129.134 252.38 128.411 252.336 127.083H256.839V126.679C256.839 124.369 255.466 123.577 254.173 123.577C252.493 123.577 251.379 124.902 251.379 126.808C251.379 128.714 252.477 129.991 254.27 129.991ZM252.336 126.259C252.4 125.293 253.083 124.433 254.173 124.433C255.207 124.433 255.87 125.209 255.87 126.259H252.336ZM260.632 129.991C261.827 129.991 262.231 129.248 262.441 128.908H262.554V129.861H263.475V121.59H262.522V124.643H262.441C262.231 124.32 261.859 123.577 260.648 123.577C259.081 123.577 257.998 124.821 257.998 126.776C257.998 128.747 259.081 129.991 260.632 129.991ZM260.761 129.134C259.565 129.134 258.951 128.084 258.951 126.76C258.951 125.451 259.549 124.433 260.761 124.433C261.924 124.433 262.538 125.37 262.538 126.76C262.538 128.165 261.908 129.134 260.761 129.134Z" fill="#0A0A0A"/>
<path d="M328.561 123.658H329.531C329.486 122.41 328.335 121.477 326.736 121.477C325.153 121.477 323.909 122.398 323.909 123.787C323.909 124.902 324.716 125.564 326.009 125.936L327.027 126.226C327.899 126.469 328.674 126.776 328.674 127.6C328.674 128.504 327.802 129.102 326.655 129.102C325.669 129.102 324.797 128.666 324.716 127.729H323.682C323.779 129.086 324.878 130.007 326.655 130.007C328.561 130.007 329.644 128.957 329.644 127.616C329.644 126.065 328.174 125.564 327.317 125.338L326.477 125.112C325.863 124.95 324.878 124.627 324.878 123.739C324.878 122.947 325.605 122.365 326.703 122.365C327.705 122.365 328.464 122.842 328.561 123.658ZM333.762 129.991C335.023 129.991 335.943 129.361 336.234 128.424L335.313 128.165C335.071 128.811 334.51 129.134 333.762 129.134C332.644 129.134 331.872 128.411 331.828 127.083H336.331V126.679C336.331 124.369 334.958 123.577 333.665 123.577C331.985 123.577 330.871 124.902 330.871 126.808C330.871 128.714 331.969 129.991 333.762 129.991ZM331.828 126.259C331.892 125.293 332.575 124.433 333.665 124.433C334.699 124.433 335.362 125.209 335.362 126.259H331.828ZM337.781 132.188H338.734V128.908H338.815C339.025 129.248 339.429 129.991 340.624 129.991C342.175 129.991 343.258 128.747 343.258 126.776C343.258 124.821 342.175 123.577 340.608 123.577C339.397 123.577 339.025 124.32 338.815 124.643H338.702V123.658H337.781V132.188ZM338.718 126.76C338.718 125.37 339.332 124.433 340.495 124.433C341.707 124.433 342.305 125.451 342.305 126.76C342.305 128.084 341.691 129.134 340.495 129.134C339.348 129.134 338.718 128.165 338.718 126.76ZM347.894 129.861H353.113V128.973H349.268V128.908L351.126 126.921C352.547 125.398 352.967 124.688 352.967 123.771C352.967 122.495 351.933 121.477 350.479 121.477C349.029 121.477 347.927 122.462 347.927 123.916H348.88C348.88 122.975 349.49 122.349 350.447 122.349C351.344 122.349 352.03 122.898 352.03 123.771C352.03 124.534 351.582 125.1 350.625 126.146L347.894 129.134V129.861ZM354.781 129.861H359.999V128.973H356.154V128.908L358.012 126.921C359.434 125.398 359.854 124.688 359.854 123.771C359.854 122.495 358.82 121.477 357.366 121.477C355.916 121.477 354.813 122.462 354.813 123.916H355.766C355.766 122.975 356.376 122.349 357.333 122.349C358.23 122.349 358.917 122.898 358.917 123.771C358.917 124.534 358.468 125.1 357.511 126.146L354.781 129.134V129.861Z" fill="#0A0A0A"/>
<path d="M412.102 121.59H411.1L409.032 122.963V123.981L411.052 122.64H411.1V129.861H412.102V121.59ZM414.739 129.861H415.789L419.473 122.527V121.59H414.174V122.478H418.439V122.543L414.739 129.861ZM421.3 128.803C421.7 128.803 422.027 128.476 422.027 128.076C422.027 127.676 421.7 127.349 421.3 127.349C420.9 127.349 420.573 127.676 420.573 128.076C420.573 128.476 420.9 128.803 421.3 128.803ZM421.3 124.619C421.7 124.619 422.027 124.292 422.027 123.892C422.027 123.492 421.7 123.165 421.3 123.165C420.9 123.165 420.573 123.492 420.573 123.892C420.573 124.292 420.9 124.619 421.3 124.619ZM423.528 128.165H427.421V129.861H428.374V128.165H429.505V127.277H428.374V121.59H427.163L423.528 127.341V128.165ZM427.421 127.277H424.61V127.212L427.357 122.866H427.421V127.277ZM433.604 129.975C435.179 129.975 436.334 128.811 436.334 127.228C436.334 125.625 435.219 124.449 433.701 124.449C433.143 124.449 432.602 124.647 432.263 124.918H432.214L432.505 122.478H435.962V121.59H431.665L431.164 125.661L432.101 125.774C432.444 125.528 433.03 125.35 433.539 125.354C434.593 125.362 435.365 126.162 435.365 127.244C435.365 128.306 434.621 129.086 433.604 129.086C432.755 129.086 432.081 128.541 432.004 127.794H431.035C431.095 129.054 432.182 129.975 433.604 129.975ZM444.708 125.281H441.089V126.17H444.708V125.281ZM449.567 129.861H454.786V128.973H450.941V128.908L452.798 126.921C454.22 125.398 454.64 124.688 454.64 123.771C454.64 122.495 453.606 121.477 452.152 121.477C450.702 121.477 449.6 122.462 449.6 123.916H450.553C450.553 122.975 451.163 122.349 452.12 122.349C453.017 122.349 453.703 122.898 453.703 123.771C453.703 124.534 453.255 125.1 452.298 126.146L449.567 129.134V129.861ZM459.362 121.59H458.36L456.292 122.963V123.981L458.312 122.64H458.36V129.861H459.362V121.59ZM462.451 128.803C462.851 128.803 463.178 128.476 463.178 128.076C463.178 127.676 462.851 127.349 462.451 127.349C462.052 127.349 461.724 127.676 461.724 128.076C461.724 128.476 462.052 128.803 462.451 128.803ZM462.451 124.619C462.851 124.619 463.178 124.292 463.178 123.892C463.178 123.492 462.851 123.165 462.451 123.165C462.052 123.165 461.724 123.492 461.724 123.892C461.724 124.292 462.052 124.619 462.451 124.619ZM467.781 121.59H466.779L464.711 122.963V123.981L466.731 122.64H466.779V129.861H467.781V121.59ZM472.744 129.975C474.32 129.975 475.475 128.811 475.475 127.228C475.475 125.625 474.36 124.449 472.841 124.449C472.284 124.449 471.743 124.647 471.404 124.918H471.355L471.646 122.478H475.103V121.59H470.806L470.305 125.661L471.242 125.774C471.585 125.528 472.171 125.35 472.68 125.354C473.734 125.362 474.505 126.162 474.505 127.244C474.505 128.306 473.762 129.086 472.744 129.086C471.896 129.086 471.222 128.541 471.145 127.794H470.176C470.236 129.054 471.323 129.975 472.744 129.975Z" fill="#0A0A0A"/>
<line x1="23.0603" y1="201.813" x2="814.94" y2="201.813" stroke="#E6E6ED" stroke-width="0.710843"/>
<path d="M29.7487 181.042H34.5954V180.154H30.7504V172.771H29.7487V181.042ZM38.6181 181.171C39.8782 181.171 40.7991 180.541 41.0899 179.604L40.169 179.346C39.9267 179.992 39.3653 180.315 38.6181 180.315C37.4993 180.315 36.7279 179.592 36.6835 178.263H41.1868V177.86C41.1868 175.549 39.8136 174.758 38.5212 174.758C36.841 174.758 35.7263 176.082 35.7263 177.989C35.7263 179.895 36.8248 181.171 38.6181 181.171ZM36.6835 177.439C36.7481 176.474 37.4307 175.614 38.5212 175.614C39.5551 175.614 40.2175 176.389 40.2175 177.439H36.6835ZM43.0619 183.369C43.9222 183.369 44.528 182.912 44.8875 181.947L47.5289 174.855L46.4869 174.838L44.7744 179.782H44.7097L42.9973 174.838H41.9633L44.2574 181.074L44.0797 181.559C43.7323 182.504 43.3042 182.593 42.6095 182.415L42.3672 183.255C42.4641 183.304 42.7388 183.369 43.0619 183.369ZM49.7432 172.771H48.79V181.042H49.7432V172.771ZM53.3146 181.188C54.397 181.188 54.9624 180.606 55.1563 180.202H55.2048V181.042H56.158V176.955C56.158 174.984 54.6555 174.758 53.8639 174.758C52.9269 174.758 51.8606 175.081 51.3759 176.212L52.2806 176.535C52.4907 176.082 52.9874 175.598 53.8962 175.598C54.7726 175.598 55.2048 176.062 55.2048 176.858V176.89C55.2048 177.351 54.7363 177.31 53.6054 177.456C52.4543 177.605 51.1982 177.86 51.1982 179.281C51.1982 180.493 52.1352 181.188 53.3146 181.188ZM53.46 180.331C52.7007 180.331 52.1514 179.992 52.1514 179.33C52.1514 178.603 52.8138 178.377 53.5569 178.28C53.9608 178.231 55.0432 178.118 55.2048 177.924V178.797C55.2048 179.572 54.5909 180.331 53.46 180.331ZM58.8509 177.31C58.8509 176.228 59.5213 175.614 60.4341 175.614C61.3186 175.614 61.8558 176.191 61.8558 177.165V181.042H62.809V177.1C62.809 175.517 61.9649 174.758 60.7088 174.758C59.7717 174.758 59.1901 175.178 58.8994 175.808H58.8186V174.838H57.8977V181.042H58.8509V177.31ZM66.8933 181.171C68.0888 181.171 68.4927 180.428 68.7027 180.089H68.8158V181.042H69.7367V172.771H68.7835V175.824H68.7027C68.4927 175.501 68.1211 174.758 66.9095 174.758C65.3424 174.758 64.26 176.002 64.26 177.956C64.26 179.927 65.3424 181.171 66.8933 181.171ZM67.0226 180.315C65.827 180.315 65.2131 179.265 65.2131 177.94C65.2131 176.632 65.8109 175.614 67.0226 175.614C68.1858 175.614 68.7997 176.551 68.7997 177.94C68.7997 179.346 68.1696 180.315 67.0226 180.315ZM75.1528 177.553C75.1528 179.588 75.7021 181.285 76.6876 182.722H77.5277C76.7522 181.656 76.1383 179.475 76.1383 177.553C76.1383 175.63 76.7522 173.449 77.5277 172.383H76.6876C75.7021 173.821 75.1528 175.517 75.1528 177.553ZM81.616 181.042C84.1363 181.042 85.558 179.475 85.558 176.89C85.558 174.321 84.1363 172.771 81.7291 172.771H79.0635V181.042H81.616ZM80.0651 180.154V173.659H81.6645C83.6032 173.659 84.5887 174.887 84.5887 176.89C84.5887 178.91 83.6032 180.154 81.5514 180.154H80.0651ZM87.2382 181.042H88.2398V178.021H90.0492C91.9758 178.021 92.8441 176.85 92.8441 175.388C92.8441 173.926 91.9758 172.771 90.0331 172.771H87.2382V181.042ZM88.2398 177.133V173.659H90.0008C91.3457 173.659 91.8587 174.394 91.8587 175.388C91.8587 176.381 91.3457 177.133 90.0169 177.133H88.2398ZM94.4577 181.042H95.4593V177.811H97.2687C97.3414 177.811 97.4101 177.811 97.4788 177.807L99.2236 181.042H100.387L98.5168 177.625C99.5709 177.266 100.064 176.406 100.064 175.307C100.064 173.845 99.1912 172.771 97.2526 172.771H94.4577V181.042ZM95.4593 176.906V173.659H97.2203C98.5612 173.659 99.0782 174.313 99.0782 175.307C99.0782 176.301 98.5612 176.906 97.2364 176.906H95.4593ZM104.495 172.771H103.494L101.426 174.144V175.162L103.445 173.821H103.494V181.042H104.495V172.771ZM108.926 176.906C108.926 174.871 108.377 173.174 107.391 171.737H106.551C107.327 172.803 107.94 174.984 107.94 176.906C107.94 178.829 107.327 181.01 106.551 182.076H107.391C108.377 180.638 108.926 178.942 108.926 176.906ZM117.764 176.462H114.145V177.351H117.764V176.462ZM123.109 181.042L123.941 178.7H127.285L128.117 181.042H129.167L126.13 172.771H125.096L122.058 181.042H123.109ZM124.256 177.811L125.58 174.079H125.645L126.97 177.811H124.256ZM130.455 172.771V181.042H131.392V174.758H131.473L134.058 181.042H134.963L137.548 174.758H137.628V181.042H138.565V172.771H137.37L134.559 179.637H134.462L131.651 172.771H130.455ZM140.299 181.042H146.002V180.154H141.495L145.953 173.498V172.771H140.251V173.659H144.758L140.299 180.315V181.042ZM147.682 181.042H152.529V180.154H148.684V172.771H147.682V181.042Z" fill="#0A0A0A"/>
<path d="M243.082 181.042H244.116L245.942 174.451H246.007L247.832 181.042H248.866L251.128 172.771H250.11L248.381 179.507H248.301L246.54 172.771H245.409L243.648 179.507H243.567L241.839 172.771H240.821L243.082 181.042ZM254.27 181.171C255.53 181.171 256.451 180.541 256.742 179.604L255.821 179.346C255.579 179.992 255.017 180.315 254.27 180.315C253.151 180.315 252.38 179.592 252.336 178.263H256.839V177.86C256.839 175.549 255.466 174.758 254.173 174.758C252.493 174.758 251.378 176.082 251.378 177.989C251.378 179.895 252.477 181.171 254.27 181.171ZM252.336 177.439C252.4 176.474 253.083 175.614 254.173 175.614C255.207 175.614 255.87 176.389 255.87 177.439H252.336ZM260.631 181.171C261.827 181.171 262.231 180.428 262.441 180.089H262.554V181.042H263.475V172.771H262.522V175.824H262.441C262.231 175.501 261.859 174.758 260.648 174.758C259.08 174.758 257.998 176.002 257.998 177.956C257.998 179.927 259.08 181.171 260.631 181.171ZM260.761 180.315C259.565 180.315 258.951 179.265 258.951 177.94C258.951 176.632 259.549 175.614 260.761 175.614C261.924 175.614 262.538 176.551 262.538 177.94C262.538 179.346 261.908 180.315 260.761 180.315Z" fill="#0A0A0A"/>
<path d="M328.561 174.838H329.531C329.486 173.59 328.335 172.657 326.736 172.657C325.153 172.657 323.909 173.578 323.909 174.968C323.909 176.082 324.716 176.745 326.009 177.116L327.027 177.407C327.899 177.65 328.674 177.956 328.674 178.78C328.674 179.685 327.802 180.283 326.655 180.283C325.669 180.283 324.797 179.847 324.716 178.91H323.682C323.779 180.267 324.878 181.188 326.655 181.188C328.561 181.188 329.644 180.137 329.644 178.797C329.644 177.246 328.174 176.745 327.317 176.519L326.477 176.292C325.863 176.131 324.878 175.808 324.878 174.919C324.878 174.128 325.605 173.546 326.703 173.546C327.705 173.546 328.464 174.023 328.561 174.838ZM333.762 181.171C335.023 181.171 335.943 180.541 336.234 179.604L335.313 179.346C335.071 179.992 334.51 180.315 333.762 180.315C332.644 180.315 331.872 179.592 331.828 178.263H336.331V177.86C336.331 175.549 334.958 174.758 333.665 174.758C331.985 174.758 330.871 176.082 330.871 177.989C330.871 179.895 331.969 181.171 333.762 181.171ZM331.828 177.439C331.892 176.474 332.575 175.614 333.665 175.614C334.699 175.614 335.362 176.389 335.362 177.439H331.828ZM337.781 183.369H338.734V180.089H338.815C339.025 180.428 339.429 181.171 340.624 181.171C342.175 181.171 343.258 179.927 343.258 177.956C343.258 176.002 342.175 174.758 340.608 174.758C339.397 174.758 339.025 175.501 338.815 175.824H338.702V174.838H337.781V183.369ZM338.718 177.94C338.718 176.551 339.332 175.614 340.495 175.614C341.707 175.614 342.305 176.632 342.305 177.94C342.305 179.265 341.691 180.315 340.495 180.315C339.348 180.315 338.718 179.346 338.718 177.94ZM347.894 181.042H353.113V180.154H349.268V180.089L351.126 178.102C352.547 176.579 352.967 175.868 352.967 174.952C352.967 173.675 351.933 172.657 350.479 172.657C349.029 172.657 347.927 173.643 347.927 175.097H348.88C348.88 174.156 349.49 173.53 350.447 173.53C351.344 173.53 352.03 174.079 352.03 174.952C352.03 175.715 351.582 176.28 350.625 177.326L347.894 180.315V181.042ZM354.781 181.042H359.999V180.154H356.154V180.089L358.012 178.102C359.434 176.579 359.854 175.868 359.854 174.952C359.854 173.675 358.82 172.657 357.366 172.657C355.916 172.657 354.813 173.643 354.813 175.097H355.766C355.766 174.156 356.376 173.53 357.333 173.53C358.23 173.53 358.917 174.079 358.917 174.952C358.917 175.715 358.468 176.28 357.511 177.326L354.781 180.315V181.042Z" fill="#0A0A0A"/>
<path d="M412.102 172.771H411.1L409.032 174.144V175.162L411.052 173.821H411.1V181.042H412.102V172.771ZM414.739 181.042H415.789L419.473 173.708V172.771H414.174V173.659H418.439V173.724L414.739 181.042ZM421.3 179.984C421.7 179.984 422.027 179.657 422.027 179.257C422.027 178.857 421.7 178.53 421.3 178.53C420.9 178.53 420.573 178.857 420.573 179.257C420.573 179.657 420.9 179.984 421.3 179.984ZM421.3 175.8C421.7 175.8 422.027 175.473 422.027 175.073C422.027 174.673 421.7 174.346 421.3 174.346C420.9 174.346 420.573 174.673 420.573 175.073C420.573 175.473 420.9 175.8 421.3 175.8ZM426.516 181.155C428.12 181.155 429.311 180.15 429.311 178.797C429.311 177.746 428.689 176.983 427.647 176.809V176.745C428.483 176.49 429.004 175.804 429.004 174.871C429.004 173.699 428.079 172.657 426.549 172.657C425.119 172.657 423.932 173.538 423.883 174.838H424.852C424.889 174.015 425.672 173.53 426.533 173.53C427.445 173.53 428.035 174.083 428.035 174.919C428.035 175.792 427.352 176.357 426.371 176.357H425.709V177.246H426.371C427.627 177.246 428.326 177.884 428.326 178.797C428.326 179.673 427.562 180.267 426.5 180.267C425.543 180.267 424.784 179.774 424.723 178.974H423.705C423.766 180.275 424.913 181.155 426.516 181.155ZM433.661 181.155C435.487 181.155 436.537 179.608 436.537 176.906C436.537 174.225 435.471 172.657 433.661 172.657C431.852 172.657 430.786 174.225 430.786 176.906C430.786 179.608 431.836 181.155 433.661 181.155ZM433.661 180.267C432.458 180.267 431.755 179.059 431.755 176.906C431.755 174.758 432.466 173.53 433.661 173.53C434.857 173.53 435.568 174.758 435.568 176.906C435.568 179.059 434.865 180.267 433.661 180.267ZM444.841 176.462H441.222V177.351H444.841V176.462ZM449.701 181.042H454.919V180.154H451.074V180.089L452.932 178.102C454.353 176.579 454.773 175.868 454.773 174.952C454.773 173.675 453.739 172.657 452.285 172.657C450.836 172.657 449.733 173.643 449.733 175.097H450.686C450.686 174.156 451.296 173.53 452.253 173.53C453.15 173.53 453.836 174.079 453.836 174.952C453.836 175.715 453.388 176.28 452.431 177.326L449.701 180.315V181.042ZM459.495 172.771H458.493L456.425 174.144V175.162L458.445 173.821H458.493V181.042H459.495V172.771ZM462.585 179.984C462.984 179.984 463.312 179.657 463.312 179.257C463.312 178.857 462.984 178.53 462.585 178.53C462.185 178.53 461.858 178.857 461.858 179.257C461.858 179.657 462.185 179.984 462.585 179.984ZM462.585 175.8C462.984 175.8 463.312 175.473 463.312 175.073C463.312 174.673 462.984 174.346 462.585 174.346C462.185 174.346 461.858 174.673 461.858 175.073C461.858 175.473 462.185 175.8 462.585 175.8ZM467.704 181.155C469.53 181.155 470.58 179.608 470.58 176.906C470.58 174.225 469.513 172.657 467.704 172.657C465.895 172.657 464.828 174.225 464.828 176.906C464.828 179.608 465.878 181.155 467.704 181.155ZM467.704 180.267C466.5 180.267 465.798 179.059 465.798 176.906C465.798 174.758 466.508 173.53 467.704 173.53C468.899 173.53 469.61 174.758 469.61 176.906C469.61 179.059 468.908 180.267 467.704 180.267ZM474.812 181.155C476.638 181.155 477.688 179.608 477.688 176.906C477.688 174.225 476.622 172.657 474.812 172.657C473.003 172.657 471.937 174.225 471.937 176.906C471.937 179.608 472.987 181.155 474.812 181.155ZM474.812 180.267C473.609 180.267 472.906 179.059 472.906 176.906C472.906 174.758 473.617 173.53 474.812 173.53C476.008 173.53 476.719 174.758 476.719 176.906C476.719 179.059 476.016 180.267 474.812 180.267Z" fill="#0A0A0A"/>
<path d="M29.7487 232.223H30.7504V229.541L31.7843 228.378L34.66 232.223H35.8717L32.3982 227.683L35.8717 223.951H34.5631L30.8473 228.055H30.7504V223.951H29.7487V232.223ZM37.9921 228.491C37.9921 227.409 38.6625 226.795 39.5753 226.795C40.4598 226.795 40.997 227.372 40.997 228.346V232.223H41.9502V228.281C41.9502 226.698 41.1061 225.938 39.85 225.938C38.9129 225.938 38.3313 226.358 38.0405 226.989H37.9598V226.019H37.0389V232.223H37.9921V228.491ZM46.2122 232.352C47.8924 232.352 49.0233 231.076 49.0233 229.153C49.0233 227.215 47.8924 225.938 46.2122 225.938C44.532 225.938 43.4011 227.215 43.4011 229.153C43.4011 231.076 44.532 232.352 46.2122 232.352ZM46.2122 231.496C44.9359 231.496 44.3543 230.397 44.3543 229.153C44.3543 227.909 44.9359 226.795 46.2122 226.795C47.4885 226.795 48.0701 227.909 48.0701 229.153C48.0701 230.397 47.4885 231.496 46.2122 231.496ZM51.6728 232.223H52.6098L53.9669 227.457H54.0638L55.4209 232.223H56.3579L58.2481 226.019H57.2464L55.9055 230.753H55.8409L54.5323 226.019H53.5145L52.1898 230.769H52.1251L50.7842 226.019H49.7826L51.6728 232.223ZM63.9025 227.409C63.6036 226.528 62.9332 225.938 61.7054 225.938C60.3968 225.938 59.4274 226.682 59.4274 227.732C59.4274 228.588 59.9363 229.161 61.0753 229.428L62.1093 229.67C62.7353 229.816 63.0301 230.115 63.0301 230.543C63.0301 231.076 62.4647 231.512 61.5761 231.512C60.7966 231.512 60.3079 231.177 60.1383 230.51L59.2336 230.737C59.4557 231.791 60.3241 232.352 61.5923 232.352C63.0342 232.352 64.0156 231.565 64.0156 230.494C64.0156 229.63 63.4744 229.085 62.3677 228.814L61.4469 228.588C60.7118 228.406 60.3806 228.16 60.3806 227.683C60.3806 227.15 60.9461 226.762 61.7054 226.762C62.5374 226.762 62.8807 227.223 63.0463 227.651L63.9025 227.409ZM66.4036 223.951H65.4504V232.223H66.4036V223.951ZM70.7504 232.352C72.0106 232.352 72.9314 231.722 73.2222 230.785L72.3014 230.527C72.059 231.173 71.4976 231.496 70.7504 231.496C69.6317 231.496 68.8602 230.773 68.8158 229.444H73.3192V229.04C73.3192 226.73 71.946 225.938 70.6535 225.938C68.9733 225.938 67.8586 227.263 67.8586 229.17C67.8586 231.076 68.9572 232.352 70.7504 232.352ZM68.8158 228.62C68.8804 227.655 69.563 226.795 70.6535 226.795C71.6875 226.795 72.3498 227.57 72.3498 228.62H68.8158ZM75.1942 234.549C76.0545 234.549 76.6603 234.093 77.0198 233.128L79.6612 226.035L78.6192 226.019L76.9067 230.963H76.8421L75.1296 226.019H74.0956L76.3897 232.255L76.212 232.74C75.8647 233.685 75.4366 233.774 74.7419 233.596L74.4995 234.436C74.5965 234.485 74.8711 234.549 75.1942 234.549ZM84.4604 228.733C84.4604 230.769 85.0097 232.465 85.9952 233.903H86.8353C86.0598 232.837 85.4459 230.656 85.4459 228.733C85.4459 226.811 86.0598 224.63 86.8353 223.564H85.9952C85.0097 225.001 84.4604 226.698 84.4604 228.733ZM90.9237 232.223C93.4439 232.223 94.8656 230.656 94.8656 228.071C94.8656 225.502 93.4439 223.951 91.0367 223.951H88.3711V232.223H90.9237ZM89.3727 231.334V224.84H90.9721C92.9108 224.84 93.8963 226.068 93.8963 228.071C93.8963 230.09 92.9108 231.334 90.859 231.334H89.3727ZM98.0482 232.223H99.0822L100.908 225.631H100.972L102.798 232.223H103.832L106.094 223.951H105.076L103.347 230.688H103.266L101.506 223.951H100.375L98.6137 230.688H98.5329L96.8043 223.951H95.7865L98.0482 232.223ZM113.901 223.951H112.915V230.462H112.835L108.311 223.951H107.342V232.223H108.343V225.728H108.424L112.932 232.223H113.901V223.951ZM118.668 223.951H117.666L115.598 225.324V226.342L117.618 225.001H117.666V232.223H118.668V223.951ZM123.098 228.087C123.098 226.051 122.549 224.355 121.564 222.917H120.724C121.499 223.984 122.113 226.165 122.113 228.087C122.113 230.01 121.499 232.191 120.724 233.257H121.564C122.549 231.819 123.098 230.123 123.098 228.087ZM131.936 227.643H128.318V228.531H131.936V227.643ZM137.281 232.223L138.113 229.88H141.457L142.289 232.223H143.339L140.302 223.951H139.268L136.231 232.223H137.281ZM138.428 228.992L139.753 225.26H139.817L141.142 228.992H138.428ZM144.628 223.951V232.223H145.565V225.938H145.645L148.23 232.223H149.135L151.72 225.938H151.801V232.223H152.738V223.951H151.542L148.731 230.817H148.634L145.823 223.951H144.628ZM154.471 232.223H160.174V231.334H155.667L160.126 224.678V223.951H154.423V224.84H158.93L154.471 231.496V232.223ZM161.855 232.223H166.701V231.334H162.856V223.951H161.855V232.223Z" fill="#0A0A0A"/>
<path d="M243.082 232.223H244.116L245.942 225.631H246.007L247.832 232.223H248.866L251.128 223.951H250.11L248.381 230.688H248.301L246.54 223.951H245.409L243.648 230.688H243.567L241.839 223.951H240.821L243.082 232.223ZM254.27 232.352C255.53 232.352 256.451 231.722 256.742 230.785L255.821 230.527C255.579 231.173 255.017 231.496 254.27 231.496C253.151 231.496 252.38 230.773 252.336 229.444H256.839V229.04C256.839 226.73 255.466 225.938 254.173 225.938C252.493 225.938 251.378 227.263 251.378 229.17C251.378 231.076 252.477 232.352 254.27 232.352ZM252.336 228.62C252.4 227.655 253.083 226.795 254.173 226.795C255.207 226.795 255.87 227.57 255.87 228.62H252.336ZM260.631 232.352C261.827 232.352 262.231 231.609 262.441 231.27H262.554V232.223H263.475V223.951H262.522V227.005H262.441C262.231 226.682 261.859 225.938 260.648 225.938C259.08 225.938 257.998 227.182 257.998 229.137C257.998 231.108 259.08 232.352 260.631 232.352ZM260.761 231.496C259.565 231.496 258.951 230.446 258.951 229.121C258.951 227.812 259.549 226.795 260.761 226.795C261.924 226.795 262.538 227.732 262.538 229.121C262.538 230.527 261.908 231.496 260.761 231.496Z" fill="#0A0A0A"/>
<path d="M328.561 226.019H329.531C329.486 224.771 328.335 223.838 326.736 223.838C325.153 223.838 323.909 224.759 323.909 226.148C323.909 227.263 324.716 227.926 326.009 228.297L327.027 228.588C327.899 228.83 328.674 229.137 328.674 229.961C328.674 230.866 327.802 231.464 326.655 231.464C325.669 231.464 324.797 231.027 324.716 230.09H323.682C323.779 231.447 324.878 232.368 326.655 232.368C328.561 232.368 329.644 231.318 329.644 229.977C329.644 228.426 328.174 227.926 327.317 227.699L326.477 227.473C325.863 227.312 324.878 226.989 324.878 226.1C324.878 225.308 325.605 224.727 326.703 224.727C327.705 224.727 328.464 225.203 328.561 226.019ZM333.762 232.352C335.023 232.352 335.943 231.722 336.234 230.785L335.313 230.527C335.071 231.173 334.51 231.496 333.762 231.496C332.644 231.496 331.872 230.773 331.828 229.444H336.331V229.04C336.331 226.73 334.958 225.938 333.665 225.938C331.985 225.938 330.871 227.263 330.871 229.17C330.871 231.076 331.969 232.352 333.762 232.352ZM331.828 228.62C331.892 227.655 332.575 226.795 333.665 226.795C334.699 226.795 335.362 227.57 335.362 228.62H331.828ZM337.781 234.549H338.734V231.27H338.815C339.025 231.609 339.429 232.352 340.624 232.352C342.175 232.352 343.258 231.108 343.258 229.137C343.258 227.182 342.175 225.938 340.608 225.938C339.397 225.938 339.025 226.682 338.815 227.005H338.702V226.019H337.781V234.549ZM338.718 229.121C338.718 227.732 339.332 226.795 340.495 226.795C341.707 226.795 342.305 227.812 342.305 229.121C342.305 230.446 341.691 231.496 340.495 231.496C339.348 231.496 338.718 230.527 338.718 229.121ZM347.894 232.223H353.113V231.334H349.268V231.27L351.126 229.283C352.547 227.76 352.967 227.049 352.967 226.132C352.967 224.856 351.933 223.838 350.479 223.838C349.029 223.838 347.927 224.824 347.927 226.278H348.88C348.88 225.337 349.49 224.711 350.447 224.711C351.344 224.711 352.03 225.26 352.03 226.132C352.03 226.896 351.582 227.461 350.625 228.507L347.894 231.496V232.223ZM354.781 232.223H359.999V231.334H356.154V231.27L358.012 229.283C359.434 227.76 359.854 227.049 359.854 226.132C359.854 224.856 358.82 223.838 357.366 223.838C355.916 223.838 354.813 224.824 354.813 226.278H355.766C355.766 225.337 356.376 224.711 357.333 224.711C358.23 224.711 358.917 225.26 358.917 226.132C358.917 226.896 358.468 227.461 357.511 228.507L354.781 231.496V232.223Z" fill="#0A0A0A"/>
<path d="M412.102 223.951H411.1L409.032 225.324V226.342L411.052 225.001H411.1V232.223H412.102V223.951ZM417.13 232.336C418.782 232.336 419.933 231.371 419.941 230.026C419.933 228.98 419.234 228.091 418.342 227.926V227.877C419.117 227.675 419.626 226.916 419.634 226.035C419.626 224.775 418.568 223.838 417.13 223.838C415.676 223.838 414.618 224.775 414.626 226.035C414.618 226.916 415.127 227.675 415.918 227.877V227.926C415.01 228.091 414.311 228.98 414.319 230.026C414.311 231.371 415.462 232.336 417.13 232.336ZM417.13 231.447C415.995 231.447 415.296 230.866 415.304 229.977C415.296 229.044 416.068 228.378 417.13 228.378C418.176 228.378 418.948 229.044 418.956 229.977C418.948 230.866 418.249 231.447 417.13 231.447ZM417.13 227.522C416.225 227.522 415.587 226.956 415.595 226.1C415.587 225.26 416.201 224.711 417.13 224.711C418.043 224.711 418.657 225.26 418.665 226.1C418.657 226.956 418.019 227.522 417.13 227.522ZM422.2 231.165C422.6 231.165 422.927 230.838 422.927 230.438C422.927 230.038 422.6 229.711 422.2 229.711C421.8 229.711 421.473 230.038 421.473 230.438C421.473 230.838 421.8 231.165 422.2 231.165ZM422.2 226.98C422.6 226.98 422.927 226.653 422.927 226.253C422.927 225.854 422.6 225.526 422.2 225.526C421.8 225.526 421.473 225.854 421.473 226.253C421.473 226.653 421.8 226.98 422.2 226.98ZM427.529 223.951H426.528L424.46 225.324V226.342L426.479 225.001H426.528V232.223H427.529V223.951ZM432.493 232.336C434.068 232.336 435.223 231.173 435.223 229.59C435.223 227.986 434.109 226.811 432.59 226.811C432.033 226.811 431.491 227.009 431.152 227.279H431.104L431.394 224.84H434.852V223.951H430.554L430.053 228.022L430.99 228.136C431.334 227.889 431.919 227.711 432.428 227.716C433.482 227.724 434.254 228.523 434.254 229.606C434.254 230.668 433.511 231.447 432.493 231.447C431.645 231.447 430.97 230.902 430.894 230.155H429.924C429.985 231.415 431.071 232.336 432.493 232.336ZM443.597 227.643H439.978V228.531H443.597V227.643ZM448.457 232.223H453.675V231.334H449.83V231.27L451.688 229.283C453.109 227.76 453.529 227.049 453.529 226.132C453.529 224.856 452.496 223.838 451.042 223.838C449.592 223.838 448.489 224.824 448.489 226.278H449.442C449.442 225.337 450.052 224.711 451.009 224.711C451.906 224.711 452.592 225.26 452.592 226.132C452.592 226.896 452.144 227.461 451.187 228.507L448.457 231.496V232.223ZM458.251 223.951H457.249L455.181 225.324V226.342L457.201 225.001H457.249V232.223H458.251V223.951ZM461.341 231.165C461.741 231.165 462.068 230.838 462.068 230.438C462.068 230.038 461.741 229.711 461.341 229.711C460.941 229.711 460.614 230.038 460.614 230.438C460.614 230.838 460.941 231.165 461.341 231.165ZM461.341 226.98C461.741 226.98 462.068 226.653 462.068 226.253C462.068 225.854 461.741 225.526 461.341 225.526C460.941 225.526 460.614 225.854 460.614 226.253C460.614 226.653 460.941 226.98 461.341 226.98ZM463.568 230.527H467.462V232.223H468.415V230.527H469.546V229.638H468.415V223.951H467.203L463.568 229.703V230.527ZM467.462 229.638H464.651V229.573L467.397 225.228H467.462V229.638ZM473.644 232.336C475.219 232.336 476.374 231.173 476.374 229.59C476.374 227.986 475.26 226.811 473.741 226.811C473.184 226.811 472.642 227.009 472.303 227.279H472.255L472.546 224.84H476.003V223.951H471.705L471.205 228.022L472.142 228.136C472.485 227.889 473.071 227.711 473.579 227.716C474.634 227.724 475.405 228.523 475.405 229.606C475.405 230.668 474.662 231.447 473.644 231.447C472.796 231.447 472.121 230.902 472.045 230.155H471.075C471.136 231.415 472.222 232.336 473.644 232.336Z" fill="#0A0A0A"/>
<line x1="23.0603" y1="304.175" x2="814.94" y2="304.175" stroke="#E6E6ED" stroke-width="0.710843"/>
<path d="M29.7487 275.132V283.404H30.6857V277.119H30.7665L33.3514 283.404H34.2561L36.841 277.119H36.9218V283.404H37.8588V275.132H36.6633L33.8522 281.998H33.7553L30.9442 275.132H29.7487ZM41.5635 283.549C42.6459 283.549 43.2113 282.967 43.4052 282.564H43.4537V283.404H44.4068V279.316C44.4068 277.345 42.9044 277.119 42.1127 277.119C41.1757 277.119 40.1095 277.442 39.6248 278.573L40.5295 278.896C40.7395 278.444 41.2363 277.959 42.1451 277.959C43.0215 277.959 43.4537 278.424 43.4537 279.219V279.252C43.4537 279.712 42.9851 279.672 41.8543 279.817C40.7032 279.967 39.4471 280.221 39.4471 281.643C39.4471 282.854 40.3841 283.549 41.5635 283.549ZM41.7089 282.693C40.9495 282.693 40.4003 282.354 40.4003 281.691C40.4003 280.964 41.0626 280.738 41.8058 280.641C42.2097 280.593 43.2921 280.479 43.4537 280.286V281.158C43.4537 281.933 42.8397 282.693 41.7089 282.693ZM47.0998 279.672C47.0998 278.589 47.7702 277.975 48.683 277.975C49.5675 277.975 50.1047 278.553 50.1047 279.526V283.404H51.0579V279.462C51.0579 277.878 50.2137 277.119 48.9576 277.119C48.0206 277.119 47.439 277.539 47.1482 278.169H47.0674V277.2H46.1466V283.404H47.0998V279.672ZM55.3199 283.533C56.6931 283.533 57.5978 282.693 57.7594 281.594H56.8062C56.6285 282.273 56.063 282.677 55.3199 282.677C54.189 282.677 53.462 281.74 53.462 280.302C53.462 278.896 54.2052 277.975 55.3199 277.975C56.16 277.975 56.6608 278.492 56.8062 279.058H57.7594C57.5978 277.895 56.6123 277.119 55.3037 277.119C53.6236 277.119 52.5088 278.444 52.5088 280.334C52.5088 282.192 53.5751 283.533 55.3199 283.533ZM60.106 279.672C60.106 278.589 60.7966 277.975 61.7377 277.975C62.6343 277.975 63.1755 278.541 63.1755 279.526V283.404H64.1287V279.462C64.1287 277.866 63.2805 277.119 62.0123 277.119C61.0349 277.119 60.4775 277.527 60.1867 278.169H60.106V275.132H59.1528V283.404H60.106V279.672ZM68.4735 283.533C69.7337 283.533 70.6545 282.903 70.9453 281.966L70.0245 281.707C69.7821 282.354 69.2207 282.677 68.4735 282.677C67.3548 282.677 66.5833 281.954 66.5389 280.625H71.0423V280.221C71.0423 277.911 69.669 277.119 68.3766 277.119C66.6964 277.119 65.5817 278.444 65.5817 280.35C65.5817 282.257 66.6803 283.533 68.4735 283.533ZM66.5389 279.801C66.6035 278.836 67.2861 277.975 68.3766 277.975C69.4105 277.975 70.0729 278.751 70.0729 279.801H66.5389ZM76.8865 278.589C76.5876 277.709 75.9172 277.119 74.6894 277.119C73.3808 277.119 72.4114 277.862 72.4114 278.912C72.4114 279.769 72.9203 280.342 74.0593 280.609L75.0933 280.851C75.7193 280.996 76.0141 281.295 76.0141 281.723C76.0141 282.257 75.4487 282.693 74.5601 282.693C73.7806 282.693 73.2919 282.358 73.1223 281.691L72.2176 281.917C72.4397 282.971 73.3081 283.533 74.5763 283.533C76.0182 283.533 76.9996 282.745 76.9996 281.675C76.9996 280.811 76.4584 280.265 75.3517 279.995L74.4309 279.769C73.6958 279.587 73.3646 279.341 73.3646 278.864C73.3646 278.331 73.9301 277.943 74.6894 277.943C75.5214 277.943 75.8647 278.403 76.0303 278.832L76.8865 278.589ZM81.1324 277.2H79.8076V275.714H78.8545V277.2H77.9174V278.008H78.8545V281.885C78.8545 282.967 79.7269 283.484 80.5346 283.484C80.8901 283.484 81.1162 283.42 81.2455 283.371L81.0516 282.515C80.9708 282.531 80.8416 282.564 80.6316 282.564C80.2115 282.564 79.8076 282.434 79.8076 281.627V278.008H81.1324V277.2ZM85.1006 283.533C86.3607 283.533 87.2816 282.903 87.5724 281.966L86.6515 281.707C86.4092 282.354 85.8478 282.677 85.1006 282.677C83.9818 282.677 83.2104 281.954 83.166 280.625H87.6693V280.221C87.6693 277.911 86.2961 277.119 85.0037 277.119C83.3235 277.119 82.2088 278.444 82.2088 280.35C82.2088 282.257 83.3073 283.533 85.1006 283.533ZM83.166 279.801C83.2306 278.836 83.9132 277.975 85.0037 277.975C86.0376 277.975 86.7 278.751 86.7 279.801H83.166ZM89.1193 283.404H90.0725V279.478C90.0725 278.638 90.7348 278.024 91.6395 278.024C91.894 278.024 92.1565 278.072 92.2211 278.088V277.119C92.1121 277.111 91.8617 277.103 91.7203 277.103C90.9772 277.103 90.3309 277.523 90.1048 278.137H90.0401V277.2H89.1193V283.404ZM96.8891 279.914C96.8891 281.95 97.4384 283.646 98.4239 285.084H99.2639C98.4885 284.018 97.8746 281.837 97.8746 279.914C97.8746 277.992 98.4885 275.811 99.2639 274.744H98.4239C97.4384 276.182 96.8891 277.878 96.8891 279.914ZM107.456 277.717C107.149 276.021 105.792 275.019 104.128 275.019C102.011 275.019 100.477 276.651 100.477 279.268C100.477 281.885 102.011 283.517 104.128 283.517C105.792 283.517 107.149 282.515 107.456 280.819H106.454C106.212 281.966 105.226 282.58 104.128 282.58C102.625 282.58 101.446 281.416 101.446 279.268C101.446 277.119 102.625 275.956 104.128 275.956C105.226 275.956 106.212 276.57 106.454 277.717H107.456ZM109.074 275.132V283.404H110.011V277.119H110.092L112.677 283.404H113.582L116.167 277.119H116.247V283.404H117.184V275.132H115.989L113.178 281.998H113.081L110.27 275.132H109.074ZM125.849 277.717C125.542 276.021 124.185 275.019 122.521 275.019C120.404 275.019 118.87 276.651 118.87 279.268C118.87 281.885 120.404 283.517 122.521 283.517C124.185 283.517 125.542 282.515 125.849 280.819H124.847C124.605 281.966 123.619 282.58 122.521 282.58C121.018 282.58 119.839 281.416 119.839 279.268C119.839 277.119 121.018 275.956 122.521 275.956C123.619 275.956 124.605 276.57 124.847 277.717H125.849ZM127.322 283.404H132.54V282.515H128.695V282.45L130.553 280.463C131.975 278.941 132.395 278.23 132.395 277.313C132.395 276.037 131.361 275.019 129.907 275.019C128.457 275.019 127.354 276.004 127.354 277.458H128.308C128.308 276.517 128.917 275.891 129.875 275.891C130.771 275.891 131.458 276.441 131.458 277.313C131.458 278.076 131.01 278.642 130.052 279.688L127.322 282.677V283.404ZM136.26 279.268C136.26 277.232 135.711 275.536 134.725 274.098H133.885C134.661 275.164 135.275 277.345 135.275 279.268C135.275 281.19 134.661 283.371 133.885 284.438H134.725C135.711 283 136.26 281.303 136.26 279.268ZM145.098 278.824H141.479V279.712H145.098V278.824ZM150.103 275.132V283.404H151.04V277.119H151.121L153.706 283.404H154.611L157.196 277.119H157.276V283.404H158.213V275.132H157.018L154.207 281.998H154.11L151.299 275.132H150.103ZM162.613 283.533C164.293 283.533 165.424 282.257 165.424 280.334C165.424 278.395 164.293 277.119 162.613 277.119C160.933 277.119 159.802 278.395 159.802 280.334C159.802 282.257 160.933 283.533 162.613 283.533ZM162.613 282.677C161.337 282.677 160.755 281.578 160.755 280.334C160.755 279.09 161.337 277.975 162.613 277.975C163.889 277.975 164.471 279.09 164.471 280.334C164.471 281.578 163.889 282.677 162.613 282.677ZM166.879 283.404H167.832V279.478C167.832 278.638 168.494 278.024 169.399 278.024C169.654 278.024 169.916 278.072 169.981 278.088V277.119C169.872 277.111 169.621 277.103 169.48 277.103C168.737 277.103 168.091 277.523 167.864 278.137H167.8V277.2H166.879V283.404ZM171.111 283.404H172.064V279.478C172.064 278.638 172.726 278.024 173.631 278.024C173.885 278.024 174.148 278.072 174.212 278.088V277.119C174.103 277.111 173.853 277.103 173.712 277.103C172.969 277.103 172.322 277.523 172.096 278.137H172.031V277.2H171.111V283.404ZM175.342 283.404H176.296V277.2H175.342V283.404ZM175.827 276.166C176.199 276.166 176.506 275.875 176.506 275.52C176.506 275.164 176.199 274.874 175.827 274.874C175.455 274.874 175.149 275.164 175.149 275.52C175.149 275.875 175.455 276.166 175.827 276.166ZM182.436 278.589C182.137 277.709 181.466 277.119 180.238 277.119C178.93 277.119 177.961 277.862 177.961 278.912C177.961 279.769 178.469 280.342 179.608 280.609L180.642 280.851C181.268 280.996 181.563 281.295 181.563 281.723C181.563 282.257 180.998 282.693 180.109 282.693C179.33 282.693 178.841 282.358 178.671 281.691L177.767 281.917C177.989 282.971 178.857 283.533 180.125 283.533C181.567 283.533 182.549 282.745 182.549 281.675C182.549 280.811 182.008 280.265 180.901 279.995L179.98 279.769C179.245 279.587 178.914 279.341 178.914 278.864C178.914 278.331 179.479 277.943 180.238 277.943C181.071 277.943 181.414 278.403 181.579 278.832L182.436 278.589ZM186.504 283.533C188.184 283.533 189.315 282.257 189.315 280.334C189.315 278.395 188.184 277.119 186.504 277.119C184.824 277.119 183.693 278.395 183.693 280.334C183.693 282.257 184.824 283.533 186.504 283.533ZM186.504 282.677C185.228 282.677 184.646 281.578 184.646 280.334C184.646 279.09 185.228 277.975 186.504 277.975C187.78 277.975 188.362 279.09 188.362 280.334C188.362 281.578 187.78 282.677 186.504 282.677ZM191.723 279.672C191.723 278.589 192.394 277.975 193.306 277.975C194.191 277.975 194.728 278.553 194.728 279.526V283.404H195.681V279.462C195.681 277.878 194.837 277.119 193.581 277.119C192.644 277.119 192.062 277.539 191.772 278.169H191.691V277.2H190.77V283.404H191.723V279.672ZM201.817 278.589C201.518 277.709 200.848 277.119 199.62 277.119C198.311 277.119 197.342 277.862 197.342 278.912C197.342 279.769 197.851 280.342 198.99 280.609L200.024 280.851C200.65 280.996 200.945 281.295 200.945 281.723C200.945 282.257 200.379 282.693 199.491 282.693C198.711 282.693 198.223 282.358 198.053 281.691L197.148 281.917C197.37 282.971 198.239 283.533 199.507 283.533C200.949 283.533 201.93 282.745 201.93 281.675C201.93 280.811 201.389 280.265 200.282 279.995L199.362 279.769C198.627 279.587 198.295 279.341 198.295 278.864C198.295 278.331 198.861 277.943 199.62 277.943C200.452 277.943 200.795 278.403 200.961 278.832L201.817 278.589Z" fill="#0A0A0A"/>
<path d="M243.082 283.404H244.116L245.942 276.812H246.007L247.832 283.404H248.866L251.128 275.132H250.11L248.381 281.869H248.301L246.54 275.132H245.409L243.648 281.869H243.567L241.839 275.132H240.821L243.082 283.404ZM254.27 283.533C255.53 283.533 256.451 282.903 256.742 281.966L255.821 281.707C255.579 282.354 255.017 282.677 254.27 282.677C253.151 282.677 252.38 281.954 252.336 280.625H256.839V280.221C256.839 277.911 255.466 277.119 254.173 277.119C252.493 277.119 251.378 278.444 251.378 280.35C251.378 282.257 252.477 283.533 254.27 283.533ZM252.336 279.801C252.4 278.836 253.083 277.975 254.173 277.975C255.207 277.975 255.87 278.751 255.87 279.801H252.336ZM260.631 283.533C261.827 283.533 262.231 282.79 262.441 282.45H262.554V283.404H263.475V275.132H262.522V278.185H262.441C262.231 277.862 261.859 277.119 260.648 277.119C259.08 277.119 257.998 278.363 257.998 280.318C257.998 282.289 259.08 283.533 260.631 283.533ZM260.761 282.677C259.565 282.677 258.951 281.627 258.951 280.302C258.951 278.993 259.549 277.975 260.761 277.975C261.924 277.975 262.538 278.912 262.538 280.302C262.538 281.707 261.908 282.677 260.761 282.677Z" fill="#0A0A0A"/>
<path d="M328.561 277.2H329.531C329.486 275.952 328.335 275.019 326.736 275.019C325.153 275.019 323.909 275.94 323.909 277.329C323.909 278.444 324.716 279.106 326.009 279.478L327.027 279.769C327.899 280.011 328.674 280.318 328.674 281.142C328.674 282.047 327.802 282.644 326.655 282.644C325.669 282.644 324.797 282.208 324.716 281.271H323.682C323.779 282.628 324.878 283.549 326.655 283.549C328.561 283.549 329.644 282.499 329.644 281.158C329.644 279.607 328.174 279.106 327.317 278.88L326.477 278.654C325.863 278.492 324.878 278.169 324.878 277.281C324.878 276.489 325.605 275.907 326.703 275.907C327.705 275.907 328.464 276.384 328.561 277.2ZM333.762 283.533C335.023 283.533 335.943 282.903 336.234 281.966L335.313 281.707C335.071 282.354 334.51 282.677 333.762 282.677C332.644 282.677 331.872 281.954 331.828 280.625H336.331V280.221C336.331 277.911 334.958 277.119 333.665 277.119C331.985 277.119 330.871 278.444 330.871 280.35C330.871 282.257 331.969 283.533 333.762 283.533ZM331.828 279.801C331.892 278.836 332.575 277.975 333.665 277.975C334.699 277.975 335.362 278.751 335.362 279.801H331.828ZM337.781 285.73H338.734V282.45H338.815C339.025 282.79 339.429 283.533 340.624 283.533C342.175 283.533 343.258 282.289 343.258 280.318C343.258 278.363 342.175 277.119 340.608 277.119C339.397 277.119 339.025 277.862 338.815 278.185H338.702V277.2H337.781V285.73ZM338.718 280.302C338.718 278.912 339.332 277.975 340.495 277.975C341.707 277.975 342.305 278.993 342.305 280.302C342.305 281.627 341.691 282.677 340.495 282.677C339.348 282.677 338.718 281.707 338.718 280.302ZM347.894 283.404H353.113V282.515H349.268V282.45L351.126 280.463C352.547 278.941 352.967 278.23 352.967 277.313C352.967 276.037 351.933 275.019 350.479 275.019C349.029 275.019 347.927 276.004 347.927 277.458H348.88C348.88 276.517 349.49 275.891 350.447 275.891C351.344 275.891 352.03 276.441 352.03 277.313C352.03 278.076 351.582 278.642 350.625 279.688L347.894 282.677V283.404ZM354.781 283.404H359.999V282.515H356.154V282.45L358.012 280.463C359.434 278.941 359.854 278.23 359.854 277.313C359.854 276.037 358.82 275.019 357.366 275.019C355.916 275.019 354.813 276.004 354.813 277.458H355.766C355.766 276.517 356.376 275.891 357.333 275.891C358.23 275.891 358.917 276.441 358.917 277.313C358.917 278.076 358.468 278.642 357.511 279.688L354.781 282.677V283.404Z" fill="#0A0A0A"/>
<path d="M412.102 275.132H411.1L409.032 276.505V277.523L411.052 276.182H411.1V283.404H412.102V275.132ZM417.13 283.517C418.782 283.517 419.933 282.551 419.941 281.206C419.933 280.16 419.234 279.272 418.342 279.106V279.058C419.117 278.856 419.626 278.097 419.634 277.216C419.626 275.956 418.568 275.019 417.13 275.019C415.676 275.019 414.618 275.956 414.626 277.216C414.618 278.097 415.127 278.856 415.918 279.058V279.106C415.01 279.272 414.311 280.16 414.319 281.206C414.311 282.551 415.462 283.517 417.13 283.517ZM417.13 282.628C415.995 282.628 415.296 282.047 415.304 281.158C415.296 280.225 416.068 279.559 417.13 279.559C418.176 279.559 418.948 280.225 418.956 281.158C418.948 282.047 418.249 282.628 417.13 282.628ZM417.13 278.702C416.225 278.702 415.587 278.137 415.595 277.281C415.587 276.441 416.201 275.891 417.13 275.891C418.043 275.891 418.657 276.441 418.665 277.281C418.657 278.137 418.019 278.702 417.13 278.702ZM422.2 282.345C422.6 282.345 422.927 282.018 422.927 281.618C422.927 281.219 422.6 280.891 422.2 280.891C421.8 280.891 421.473 281.219 421.473 281.618C421.473 282.018 421.8 282.345 422.2 282.345ZM422.2 278.161C422.6 278.161 422.927 277.834 422.927 277.434C422.927 277.034 422.6 276.707 422.2 276.707C421.8 276.707 421.473 277.034 421.473 277.434C421.473 277.834 421.8 278.161 422.2 278.161ZM427.319 283.517C429.145 283.517 430.195 281.97 430.195 279.268C430.195 276.586 429.129 275.019 427.319 275.019C425.51 275.019 424.443 276.586 424.443 279.268C424.443 281.97 425.494 283.517 427.319 283.517ZM427.319 282.628C426.116 282.628 425.413 281.421 425.413 279.268C425.413 277.119 426.124 275.891 427.319 275.891C428.515 275.891 429.225 277.119 429.225 279.268C429.225 281.421 428.523 282.628 427.319 282.628ZM434.428 283.517C436.253 283.517 437.303 281.97 437.303 279.268C437.303 276.586 436.237 275.019 434.428 275.019C432.618 275.019 431.552 276.586 431.552 279.268C431.552 281.97 432.602 283.517 434.428 283.517ZM434.428 282.628C433.224 282.628 432.521 281.421 432.521 279.268C432.521 277.119 433.232 275.891 434.428 275.891C435.623 275.891 436.334 277.119 436.334 279.268C436.334 281.421 435.631 282.628 434.428 282.628ZM445.607 278.824H441.988V279.712H445.607V278.824ZM450.467 283.404H455.685V282.515H451.84V282.45L453.698 280.463C455.12 278.941 455.54 278.23 455.54 277.313C455.54 276.037 454.506 275.019 453.052 275.019C451.602 275.019 450.499 276.004 450.499 277.458H451.452C451.452 276.517 452.062 275.891 453.02 275.891C453.916 275.891 454.603 276.441 454.603 277.313C454.603 278.076 454.154 278.642 453.197 279.688L450.467 282.677V283.404ZM460.051 283.517C461.877 283.517 462.927 281.97 462.927 279.268C462.927 276.586 461.861 275.019 460.051 275.019C458.242 275.019 457.176 276.586 457.176 279.268C457.176 281.97 458.226 283.517 460.051 283.517ZM460.051 282.628C458.848 282.628 458.145 281.421 458.145 279.268C458.145 277.119 458.856 275.891 460.051 275.891C461.247 275.891 461.958 277.119 461.958 279.268C461.958 281.421 461.255 282.628 460.051 282.628ZM465.173 282.345C465.572 282.345 465.9 282.018 465.9 281.618C465.9 281.219 465.572 280.891 465.173 280.891C464.773 280.891 464.446 281.219 464.446 281.618C464.446 282.018 464.773 282.345 465.173 282.345ZM465.173 278.161C465.572 278.161 465.9 277.834 465.9 277.434C465.9 277.034 465.572 276.707 465.173 276.707C464.773 276.707 464.446 277.034 464.446 277.434C464.446 277.834 464.773 278.161 465.173 278.161ZM470.292 283.517C472.117 283.517 473.168 281.97 473.168 279.268C473.168 276.586 472.101 275.019 470.292 275.019C468.482 275.019 467.416 276.586 467.416 279.268C467.416 281.97 468.466 283.517 470.292 283.517ZM470.292 282.628C469.088 282.628 468.385 281.421 468.385 279.268C468.385 277.119 469.096 275.891 470.292 275.891C471.487 275.891 472.198 277.119 472.198 279.268C472.198 281.421 471.495 282.628 470.292 282.628ZM477.4 283.517C479.226 283.517 480.276 281.97 480.276 279.268C480.276 276.586 479.21 275.019 477.4 275.019C475.591 275.019 474.525 276.586 474.525 279.268C474.525 281.97 475.575 283.517 477.4 283.517ZM477.4 282.628C476.197 282.628 475.494 281.421 475.494 279.268C475.494 277.119 476.205 275.891 477.4 275.891C478.596 275.891 479.307 277.119 479.307 279.268C479.307 281.421 478.604 282.628 477.4 282.628Z" fill="#0A0A0A"/>
<g filter="url(#filter1_d_2149_28782)">
<path d="M6 23.2169C6 15.3651 12.3651 9 20.2169 9H817.783C825.635 9 832 15.3651 832 23.2169V65.8675H6V23.2169Z" fill="white" shape-rendering="crispEdges"/>
<path d="M31.9555 42.3253L32.8087 39.7758H36.6961L37.5544 42.3253H39.5537L35.9086 31.9858H33.5963L29.9563 42.3253H31.9555ZM33.3136 38.2713L34.712 34.1062H34.7928L36.1913 38.2713H33.3136ZM42.6623 31.9858H40.8347V42.3253H42.6623V31.9858ZM46.3693 31.9858H44.5417V42.3253H46.3693V31.9858Z" fill="#3071F2"/>
<path d="M6.71167 63.8072H70.2056V66.6506H6.71167V63.8072Z" fill="#3071F2"/>
<path d="M95.5628 42.3253L96.416 39.7758H100.303L101.162 42.3253H103.161L99.5158 31.9858H97.2036L93.5635 42.3253H95.5628ZM96.9208 38.2713L98.3193 34.1062H98.4001L99.7985 38.2713H96.9208ZM107.589 42.4768C109.537 42.4768 110.779 41.3206 110.911 39.6748H109.164C109.007 40.5078 108.406 40.9874 107.604 40.9874C106.463 40.9874 105.726 40.0333 105.726 38.448C105.726 36.8829 106.478 35.9439 107.604 35.9439C108.482 35.9439 109.022 36.5093 109.164 37.2565H110.911C110.784 35.5753 109.472 34.4697 107.578 34.4697C105.307 34.4697 103.873 36.1105 103.873 38.4783C103.873 40.8259 105.271 42.4768 107.589 42.4768ZM115.794 42.4768C117.743 42.4768 118.984 41.3206 119.116 39.6748H117.369C117.212 40.5078 116.612 40.9874 115.809 40.9874C114.668 40.9874 113.931 40.0333 113.931 38.448C113.931 36.8829 114.683 35.9439 115.809 35.9439C116.687 35.9439 117.228 36.5093 117.369 37.2565H119.116C118.99 35.5753 117.677 34.4697 115.784 34.4697C113.512 34.4697 112.078 36.1105 112.078 38.4783C112.078 40.8259 113.476 42.4768 115.794 42.4768ZM124.05 42.4768C125.857 42.4768 127.099 41.5933 127.422 40.2453L125.716 40.0534C125.468 40.7098 124.862 41.0531 124.075 41.0531C122.893 41.0531 122.111 40.2756 122.096 38.9478H127.498V38.3874C127.498 35.6662 125.862 34.4697 123.954 34.4697C121.732 34.4697 120.283 36.1004 120.283 38.4934C120.283 40.9269 121.712 42.4768 124.05 42.4768ZM122.101 37.7159C122.156 36.7264 122.888 35.8934 123.979 35.8934C125.029 35.8934 125.736 36.6608 125.746 37.7159H122.101ZM129.044 45.2333H130.871V41.1036H130.947C131.235 41.669 131.836 42.4616 133.169 42.4616C134.996 42.4616 136.364 41.0127 136.364 38.4581C136.364 35.8732 134.956 34.4697 133.163 34.4697C131.795 34.4697 131.225 35.2926 130.947 35.853H130.841V34.5707H129.044V45.2333ZM130.836 38.448C130.836 36.9435 131.482 35.9691 132.659 35.9691C133.875 35.9691 134.501 37.0041 134.501 38.448C134.501 39.902 133.865 40.9622 132.659 40.9622C131.492 40.9622 130.836 39.9525 130.836 38.448ZM141.802 34.5707H140.272V32.7128H138.444V34.5707H137.344V35.9843H138.444V40.2958C138.434 41.7548 139.494 42.4717 140.868 42.4313C141.388 42.4162 141.746 42.3152 141.943 42.2496L141.635 40.8208C141.534 40.8461 141.327 40.8915 141.1 40.8915C140.64 40.8915 140.272 40.73 140.272 39.9929V35.9843H141.802V34.5707ZM146.68 42.4768C148.487 42.4768 149.729 41.5933 150.052 40.2453L148.346 40.0534C148.099 40.7098 147.493 41.0531 146.705 41.0531C145.524 41.0531 144.741 40.2756 144.726 38.9478H150.128V38.3874C150.128 35.6662 148.492 34.4697 146.584 34.4697C144.363 34.4697 142.914 36.1004 142.914 38.4934C142.914 40.9269 144.342 42.4768 146.68 42.4768ZM144.731 37.7159C144.787 36.7264 145.519 35.8934 146.609 35.8934C147.659 35.8934 148.366 36.6608 148.376 37.7159H144.731ZM154.552 42.4616C155.885 42.4616 156.486 41.669 156.773 41.1036H156.884V42.3253H158.682V31.9858H156.849V35.853H156.773C156.496 35.2926 155.925 34.4697 154.557 34.4697C152.765 34.4697 151.356 35.8732 151.356 38.4581C151.356 41.0127 152.724 42.4616 154.552 42.4616ZM155.062 40.9622C153.855 40.9622 153.219 39.902 153.219 38.448C153.219 37.0041 153.845 35.9691 155.062 35.9691C156.238 35.9691 156.884 36.9435 156.884 38.448C156.884 39.9525 156.228 40.9622 155.062 40.9622Z" fill="#585A61"/>
<path d="M208.44 31.9858H206.567V42.3253H208.44V31.9858ZM213.76 45.3949C215.855 45.3949 217.4 44.4356 217.4 42.4515V34.5707H215.598V35.853H215.497C215.219 35.2926 214.638 34.4697 213.27 34.4697C211.478 34.4697 210.069 35.8732 210.069 38.4227C210.069 40.9521 211.478 42.2142 213.265 42.2142C214.593 42.2142 215.214 41.5024 215.497 40.9319H215.587V42.401C215.587 43.542 214.83 44.0116 213.79 44.0116C212.69 44.0116 212.205 43.4915 211.983 43.0372L210.337 43.436C210.67 44.5215 211.786 45.3949 213.76 45.3949ZM213.775 40.7804C212.568 40.7804 211.932 39.8414 211.932 38.4126C211.932 37.0041 212.558 35.9691 213.775 35.9691C214.951 35.9691 215.598 36.9435 215.598 38.4126C215.598 39.8919 214.941 40.7804 213.775 40.7804ZM221.1 37.7816C221.1 36.6608 221.777 36.0146 222.741 36.0146C223.685 36.0146 224.251 36.6355 224.251 37.6705V42.3253H226.078V37.3878C226.083 35.5299 225.023 34.4697 223.423 34.4697C222.262 34.4697 221.464 35.025 221.111 35.8883H221.02V34.5707H219.273V42.3253H221.1V37.7816ZM231.319 42.4768C233.591 42.4768 235.035 40.8764 235.035 38.4783C235.035 36.0751 233.591 34.4697 231.319 34.4697C229.047 34.4697 227.603 36.0751 227.603 38.4783C227.603 40.8764 229.047 42.4768 231.319 42.4768ZM231.329 41.0127C230.072 41.0127 229.456 39.8919 229.456 38.4732C229.456 37.0546 230.072 35.9186 231.329 35.9186C232.566 35.9186 233.182 37.0546 233.182 38.4732C233.182 39.8919 232.566 41.0127 231.329 41.0127ZM236.586 42.3253H238.413V37.7664C238.413 36.782 239.156 36.0852 240.16 36.0852C240.468 36.0852 240.852 36.1408 241.008 36.1913V34.5101C240.842 34.4798 240.554 34.4596 240.352 34.4596C239.464 34.4596 238.721 34.9645 238.439 35.8631H238.358V34.5707H236.586V42.3253ZM245.336 42.4768C247.144 42.4768 248.386 41.5933 248.709 40.2453L247.002 40.0534C246.755 40.7098 246.149 41.0531 245.362 41.0531C244.18 41.0531 243.398 40.2756 243.382 38.9478H248.784V38.3874C248.784 35.6662 247.149 34.4697 245.24 34.4697C243.019 34.4697 241.57 36.1004 241.57 38.4934C241.57 40.9269 242.999 42.4768 245.336 42.4768ZM243.388 37.7159C243.443 36.7264 244.175 35.8934 245.266 35.8934C246.316 35.8934 247.023 36.6608 247.033 37.7159H243.388ZM253.208 42.4616C254.541 42.4616 255.142 41.669 255.43 41.1036H255.541V42.3253H257.338V31.9858H255.505V35.853H255.43C255.152 35.2926 254.582 34.4697 253.213 34.4697C251.421 34.4697 250.013 35.8732 250.013 38.4581C250.013 41.0127 251.381 42.4616 253.208 42.4616ZM253.718 40.9622C252.512 40.9622 251.876 39.902 251.876 38.448C251.876 37.0041 252.502 35.9691 253.718 35.9691C254.895 35.9691 255.541 36.9435 255.541 38.448C255.541 39.9525 254.884 40.9622 253.718 40.9622Z" fill="#585A61"/>
</g>
</g>
<defs>
<filter id="filter0_d_2149_28782" x="0.289062" y="0.289154" width="867.422" height="337.133" filterUnits="userSpaceOnUse" color-interpolation-filters="sRGB">
<feFlood flood-opacity="0" result="BackgroundImageFix"/>
<feColorMatrix in="SourceAlpha" type="matrix" values="0 0 0 0 0 0 0 0 0 0 0 0 0 0 0 0 0 0 127 0" result="hardAlpha"/>
<feOffset dx="15" dy="12"/>
<feGaussianBlur stdDeviation="10"/>
<feComposite in2="hardAlpha" operator="out"/>
<feColorMatrix type="matrix" values="0 0 0 0 0.0198347 0 0 0 0 0.0917356 0 0 0 0 0.2 0 0 0 0.05 0"/>
<feBlend mode="normal" in2="BackgroundImageFix" result="effect1_dropShadow_2149_28782"/>
<feBlend mode="normal" in="SourceGraphic" in2="effect1_dropShadow_2149_28782" result="shape"/>
</filter>
<filter id="filter1_d_2149_28782" x="0.313253" y="4.73494" width="837.373" height="69.0241" filterUnits="userSpaceOnUse" color-interpolation-filters="sRGB">
<feFlood flood-opacity="0" result="BackgroundImageFix"/>
<feColorMatrix in="SourceAlpha" type="matrix" values="0 0 0 0 0 0 0 0 0 0 0 0 0 0 0 0 0 0 127 0" result="hardAlpha"/>
<feOffset dy="1.42169"/>
<feGaussianBlur stdDeviation="2.84337"/>
<feComposite in2="hardAlpha" operator="out"/>
<feColorMatrix type="matrix" values="0 0 0 0 0 0 0 0 0 0 0 0 0 0 0 0 0 0 0.04 0"/>
<feBlend mode="normal" in2="BackgroundImageFix" result="effect1_dropShadow_2149_28782"/>
<feBlend mode="normal" in="SourceGraphic" in2="effect1_dropShadow_2149_28782" result="shape"/>
</filter>
</defs>
</svg>
